<?xml version="1.0" encoding="utf-8"?><!DOCTYPE svg PUBLIC "-//W3C//DTD SVG 1.1//EN" "http://www.w3.org/Graphics/SVG/1.1/DTD/svg11.dtd"><svg version="1.1" xmlns="http://www.w3.org/2000/svg" xmlns:xlink="http://www.w3.org/1999/xlink" width="48" height="48" viewBox="0 0 48 48" data-tags="envelope,letter,email,mail"><g fill="#444" transform="scale(0.046875 0.046875)"><path d="M0 810.666c0 47.146 38.186 85.334 85.334 85.334h853.334c47.146 0 85.334-38.186 85.334-85.334l-0.002-576c0-47.146-38.186-85.334-85.334-85.334l-853.332 0.002c-47.146 0-85.334 38.186-85.334 85.334v575.998zM314.026 523.306l-195.2-196.48c-16.192-16.214-16.192-42.454 0-58.666 16.234-16.214 42.474-16.214 58.666 0l311.468 311.872c12.586 12.374 33.302 12.374 45.674 0l311.872-311.872c16.214-16.214 42.454-16.214 58.666 0 16.214 16.214 16.214 42.454 0 58.666l-195.414 196.48 195.414 195.178c16.214 16.214 16.214 42.454 0 58.666s-42.454 16.214-58.666 0l-195.2-194.986c0 0-60.992 62.080-72.086 73.174-17.3 16.876-41.194 27.328-67.22 27.328-26.454 0-50.346-10.666-67.626-27.968-11.306-11.094-71.894-72.512-71.894-72.512l-195.008 194.986c-16.192 16.214-42.432 16.214-58.666 0-16.192-16.214-16.192-42.454 0-58.666l195.22-195.2z" /></g></svg>