<?xml version="1.0" encoding="utf-8"?><!DOCTYPE svg PUBLIC "-//W3C//DTD SVG 1.1//EN" "http://www.w3.org/Graphics/SVG/1.1/DTD/svg11.dtd"><svg version="1.1" xmlns="http://www.w3.org/2000/svg" xmlns:xlink="http://www.w3.org/1999/xlink" width="48" height="48" viewBox="0 0 48 48" data-tags="phone,contact"><g fill="#444" transform="scale(0.046875 0.046875)"><path d="M512 0c-182.4 0-365.226 32.64-431.574 97.706-55.040 53.974-73.386 149.334-79.574 209.706 0 0-0.854 5.974-0.854 8.534 0 23.68 19.2 42.666 42.666 42.666 2.774 0 105.386-8.32 167.254-13.44 1.494-0.214 2.986-0.426 4.48-0.854 23.040-0.64 41.6-19.414 41.6-42.666l0.214-84.054c0.002-26.024 21.122-46.932 47.148-46.932h417.258c26.048 0 47.168 20.908 47.168 46.934l0.214 84.054c0 23.254 18.56 42.026 41.6 42.666 1.472 0.426 2.986 0.64 4.48 0.854 61.866 5.12 164.48 13.44 167.254 13.44 23.466 0 42.666-18.986 42.666-42.666 0-2.56-0.854-8.534-0.854-8.534-6.186-60.374-24.512-155.734-79.552-209.706-66.368-65.068-249.194-97.708-431.594-97.708zM512 554.666c-47.146 0-85.334 38.186-85.334 85.334s38.186 85.334 85.334 85.334 85.334-38.186 85.334-85.334-38.188-85.334-85.334-85.334zM448 362.666v-53.334c0-29.44-23.894-53.334-53.334-53.334s-53.332 23.896-53.332 53.336v53.332l-287.788 307.414c-19.84 19.414-32.212 46.506-32.212 76.374v85.546c0 47.146 38.186 85.334 85.334 85.334h21.334v53.334c-0.002 29.438 23.892 53.332 53.332 53.332s53.334-23.894 53.334-53.334l-0.002-53.332h554.666v53.334c0 29.44 23.894 53.334 53.334 53.334s53.334-23.894 53.334-53.334l-0-53.334h21.334c47.146 0 85.334-38.186 85.334-85.334v-85.546c0-29.866-12.374-56.96-32.214-76.374l-287.788-307.414v-53.334c0-29.44-23.894-53.334-53.334-53.334s-53.332 23.896-53.332 53.336v53.332h-128zM512 469.334c94.294 0 170.666 76.374 170.666 170.666s-76.374 170.666-170.666 170.666-170.666-76.374-170.666-170.666 76.372-170.666 170.666-170.666z" /></g></svg>