<svg xmlns="http://www.w3.org/2000/svg" viewBox="0 0 79.06 80.57"><defs><clipPath id="a"><path fill="none" d="M0 0h79.06v80.57H0z"/></clipPath></defs><title>balka</title><g clip-path="url(#a)" fill="none" stroke="#000" stroke-miterlimit="10" stroke-width="3"><path d="M75.14 73.43c-4.3.78-22.88 4.51-28.5 5.63a.52.52 0 0 1-.64-.53c.38-5.58 7.58-6.82 10.23-7.59 1.3-.37 2.27-2.19 2.45-3.53.39-2.92 1-8.81 1.32-11.8a.66.66 0 0 0-.72-.71C51.66 55.53 49 51.39 49 49.81a.52.52 0 0 1 .43-.53c3-.52 21.63-3.71 27.49-4.81a.52.52 0 0 1 .62.54c-.33 5.27-5.44 6.67-9.36 8.34a3.32 3.32 0 0 0-2.4 2.58c-.5 2.69-.84 9.83-1.17 11.81a.65.65 0 0 0 .7.76c3.65-.32 10.15-.57 10.23 4.38a.53.53 0 0 1-.4.55z"/><path d="M12.87 15.69l-1.12 6.92a3.14 3.14 0 0 1-1.68 2.3l-6.9 2.53a1.67 1.67 0 0 0-.62.41l-.55.58a1.68 1.68 0 0 0 0 2.31l44.3 48.33M77.31 44.56L27.1 1.75a1 1 0 0 0-.82-.23L5 4.84a1 1 0 0 0-.83.76L4 6.36a1 1 0 0 0 .29 1l45.13 42"/></g></svg>