<svg xmlns="http://www.w3.org/2000/svg" viewBox="0 0 82.61 60.27"><defs><clipPath id="a"><path fill="none" d="M0 0h82.61v60.27H0z"/></clipPath></defs><title>list</title><g clip-path="url(#a)" fill="none" stroke="#000" stroke-miterlimit="10" stroke-width="3"><path d="M80.72 35.34L34.29 44.1a.48.48 0 0 1-.46-.16L1.61 5.87a.48.48 0 0 1 .33-.78L42.81 1.5a.48.48 0 0 1 .35.12l37.78 32.9a.48.48 0 0 1-.22.82z"/><path d="M71.63 40.81l9.31 8.37a.48.48 0 0 1-.22.83l-46.43 8.76a.48.48 0 0 1-.46-.16L1.61 20.53a.48.48 0 0 1 .33-.78l10.74-.6"/></g></svg>