<svg xmlns="http://www.w3.org/2000/svg" width="128.656" height="100.25" viewBox="0 0 128.656 100.25">
  <metadata><?xpacket begin="﻿" id="W5M0MpCehiHzreSzNTczkc9d"?>
<x:xmpmeta xmlns:x="adobe:ns:meta/" x:xmptk="Adobe XMP Core 5.6-c138 79.159824, 2016/09/14-01:09:01        ">
   <rdf:RDF xmlns:rdf="http://www.w3.org/1999/02/22-rdf-syntax-ns#">
      <rdf:Description rdf:about=""/>
   </rdf:RDF>
</x:xmpmeta>
                                                                                                    
                                                                                                    
                                                                                                    
                                                                                                    
                                                                                                    
                                                                                                    
                                                                                                    
                                                                                                    
                                                                                                    
                                                                                                    
                                                                                                    
                                                                                                    
                                                                                                    
                                                                                                    
                                                                                                    
                                                                                                    
                                                                                                    
                                                                                                    
                                                                                                    
                                                                                                    
                           
<?xpacket end="w"?></metadata>
<defs>
    <style>
      .cls-1 {
        fill-rule: evenodd;
      }
    </style>
  </defs>
  <path id="products" class="cls-1" d="M284.547,245.742c-3.306,3.838-7.648,6.318-11.6,6.713l0,0-0.3.029a8.159,8.159,0,0,1-5.96-1.743l-0.324-.259c-0.017-.016-0.029-0.034-0.046-0.05l-6.677-5.937-2.813,17.429a2.154,2.154,0,0,1-1.628,1.832L234.692,268h-0.384l0,0a2.147,2.147,0,0,1-2.108-1.735,1.238,1.238,0,0,0-.017-0.17l-1.815-2.038-2.776,14.9a3.932,3.932,0,0,1-2.9,3.113l-18.433,4.841c-0.175,0-.44.088-0.7,0.088h0a2.971,2.971,0,0,1-2.282-1.038l-41.868-46.955a1.665,1.665,0,0,1-.44-1.383,1.823,1.823,0,0,1,1.493-1.556l14.306-2.854a1.3,1.3,0,0,0,1.053-1.038l2.9-13.748a1.8,1.8,0,0,1,2.2-1.383,3.177,3.177,0,0,1,.791.345l24.047,21.262L190.607,219.4a2.195,2.195,0,0,1-.576-1.542l0.671-15.62a2.08,2.08,0,0,1,1.918-2.025L209.966,198a2.333,2.333,0,0,1,1.628.483l4.145,3.712a12.838,12.838,0,0,1,2.892-10.176,14.823,14.823,0,0,1,9.75-5.263,7.851,7.851,0,0,1,6.086,2.022l51.111,38.1a4.34,4.34,0,0,1,1.365.895,7.758,7.758,0,0,1,2.632,5.389C289.872,237.121,288.042,241.788,284.547,245.742Zm-30.305,15.315,2.779-17.549-18.974,2.8-2.78,18.611Zm-20.508,6.075h0Zm-8.6,11.312,2.978-15.985a4.189,4.189,0,0,0-1.223,1.886l-3.073,10.55a4.552,4.552,0,0,1-2.721,2.94l-12.025,4.583a4.326,4.326,0,0,0-2.014,1.623l17.025-4.472A1.537,1.537,0,0,0,225.132,278.444Zm-18.959,7.52h0Zm-28.881-50.15L164.3,238.321l40,44.989A6.716,6.716,0,0,1,208.015,280l11.629-4.433-41.386-40.1A3.171,3.171,0,0,1,177.292,235.814Zm5.794-15.567L180.453,232.7a3.1,3.1,0,0,1-.351.952l41.25,39.966,2.9-9.963a6.875,6.875,0,0,1,2.564-3.587l-4.9-5.5Zm9.82-2.581,32.844,36.9,4.212,3.725a2.944,2.944,0,0,1,1,2.126l1.733,1.947,2.566-16.952-41.73-41.287Zm17.06-16.681-13.794,1.7,41.273,40.835,17.263-2.584Zm22.621-10.074a5.467,5.467,0,0,0-3.917-1.266,11.455,11.455,0,0,0-7.663,4.178c-3.4,3.945-2.631,9.619-.622,11.755l43.631,38.8c0.007-3.607,1.711-7.835,4.972-11.6a19.323,19.323,0,0,1,10.792-6.614ZM286.5,233.367a4.707,4.707,0,0,0-1.641-3.441l-0.107-.086a1.543,1.543,0,0,0-.642-0.422L284,229.332c-3.255-1.623-8.81.686-12.84,5.279-3.892,4.748-5.232,10.558-3.06,13.4l0.449,0.4-0.051.053,0.059,0.047a4.848,4.848,0,0,0,3.8,1.083c3.169-.221,6.937-2.448,9.9-5.766C285.119,240.521,286.809,236.454,286.5,233.367Zm-14.6,11.6c-1.527-1.31-.491-4.921,2.191-8.016s6.223-4.617,7.838-3.415c1.527,1.31.481,4.824-2.192,8.016C277.056,244.642,273.428,246.273,271.9,244.963ZM241.3,249.2l0,0,11.021-1.639a0.647,0.647,0,0,1,.575.387v0.1l-1.533,9.739a0.415,0.415,0,0,1-.384.387l-10.926,2.217a0.454,0.454,0,0,1-.575-0.386v-0.193l1.533-10.414A0.352,0.352,0,0,1,241.3,249.2Z" transform="translate(-160.938 -186.75)"/>
</svg>
