<svg xmlns="http://www.w3.org/2000/svg" width="58" height="57" viewBox="0 0 58 57">
  <metadata><?xpacket begin="﻿" id="W5M0MpCehiHzreSzNTczkc9d"?>
<x:xmpmeta xmlns:x="adobe:ns:meta/" x:xmptk="Adobe XMP Core 5.6-c138 79.159824, 2016/09/14-01:09:01        ">
   <rdf:RDF xmlns:rdf="http://www.w3.org/1999/02/22-rdf-syntax-ns#">
      <rdf:Description rdf:about=""/>
   </rdf:RDF>
</x:xmpmeta>
                                                                                                    
                                                                                                    
                                                                                                    
                                                                                                    
                                                                                                    
                                                                                                    
                                                                                                    
                                                                                                    
                                                                                                    
                                                                                                    
                                                                                                    
                                                                                                    
                                                                                                    
                                                                                                    
                                                                                                    
                                                                                                    
                                                                                                    
                                                                                                    
                                                                                                    
                                                                                                    
                           
<?xpacket end="w"?></metadata>
<defs>
    <style>
      .cls-1 {
        fill-rule: evenodd;
      }
    </style>
  </defs>
  <path id="subscription" class="cls-1" d="M55.583,58.008H2.417A2.264,2.264,0,0,1,0,55.633V23.8a4.175,4.175,0,0,1,1.692-3.088l7.975-5.94V5.741a2.264,2.264,0,0,1,2.417-2.376h13.05L27.308,1.7a2.364,2.364,0,0,1,3.383,0l2.175,1.663h13.05a2.264,2.264,0,0,1,2.417,2.376v9.028l8.217,6.177A4.04,4.04,0,0,1,58,23.56V55.633A2.264,2.264,0,0,1,55.583,58.008Zm-5.075-4.752L29,37.814,7.492,53.257H50.508ZM9.667,20L4.833,23.56v1.425l4.833,3.564V20ZM4.833,28.549V51.831L20.3,40.19ZM36,7H12l0.083,6.106V30.449l10.875,7.84,4.35-3.326a2.364,2.364,0,0,1,3.383,0l4.35,3.326,10.875-7.84V13.106L46,7H36ZM53.167,23.56L48.333,20v8.79l4.833-3.564V23.56Zm0,4.989L37.7,40.19,53.167,51.831V28.549ZM17,30l-0.083-2.877H41.083L41,30H17ZM16.917,20H41.083v2.376H16.917V20Zm0-7.127H41.083v2.376H16.917V12.869Z" transform="translate(0 -1)"/>
</svg>
