<svg xmlns="http://www.w3.org/2000/svg" width="48" height="48" viewBox="0 0 48 48">
  <metadata><?xpacket begin="﻿" id="W5M0MpCehiHzreSzNTczkc9d"?>
<x:xmpmeta xmlns:x="adobe:ns:meta/" x:xmptk="Adobe XMP Core 5.6-c138 79.159824, 2016/09/14-01:09:01        ">
   <rdf:RDF xmlns:rdf="http://www.w3.org/1999/02/22-rdf-syntax-ns#">
      <rdf:Description rdf:about=""/>
   </rdf:RDF>
</x:xmpmeta>
                                                                                                    
                                                                                                    
                                                                                                    
                                                                                                    
                                                                                                    
                                                                                                    
                                                                                                    
                                                                                                    
                                                                                                    
                                                                                                    
                                                                                                    
                                                                                                    
                                                                                                    
                                                                                                    
                                                                                                    
                                                                                                    
                                                                                                    
                                                                                                    
                                                                                                    
                                                                                                    
                           
<?xpacket end="w"?></metadata>
<defs>
    <style>
      .cls-1 {
        fill-rule: evenodd;
      }
    </style>
  </defs>
  <path id="subscription_48" class="cls-1" d="M46,48.007H2a1.89,1.89,0,0,1-2-2V19.189a3.526,3.526,0,0,1,1.4-2.6l6.6-5V3.98a1.89,1.89,0,0,1,2-2H20.8l1.8-1.4a1.933,1.933,0,0,1,2.8,0l1.8,1.4H38a1.89,1.89,0,0,1,2,2v7.6l6.8,5.2a3.414,3.414,0,0,1,1.2,2.2V46.006A1.89,1.89,0,0,1,46,48.007Zm-4.2-4L24,31,6.2,44H41.8ZM8,15.987l-4,3v1.2l4,3v-7.2Zm-4,7.2V42.8L16.8,33Zm34-8.605V3.98H10V24.793l9,6.6,3.6-2.8a1.933,1.933,0,0,1,2.8,0L29,31.4l9-6.6V14.586Zm6,4.4-4-3v7.4l4-3v-1.4Zm0,4.2L31.2,33,44,42.8V23.192Zm-30-1.2H34v2H14v-2Zm0-6H34v2H14v-2Zm0-6H34v2H14v-2Z"/>
</svg>
