<svg xmlns="http://www.w3.org/2000/svg" width="198" height="180" viewBox="0 0 198 180">
  <defs>
    <style>
      .cls-1 {
        fill: #fff;
        fill-rule: evenodd;
      }
    </style>
  </defs>
  <path id="avglob" class="cls-1" d="M145.029,100.8a16.634,16.634,0,0,1,.51-13.629c3.57-7.132,15.9-9.667,15.9-9.667s-3.57-4.516-7.607-5.587c4.252-7.448,16.637-33.253-2.047-36.154-4.764-.739-9.25-0.095-13.213,3.388,0,0,7.51-2.072,10.54,3.17C152.1,47.493,139,60.692,135.848,66.564l5.95-.317s-4.931,11.728-4.081,19.493,7.312,15.056,7.312,15.056h0Zm-94.878,0a16.636,16.636,0,0,0-.51-13.629C46.071,80.035,33.746,77.5,33.746,77.5s3.57-4.516,7.607-5.587C37.1,64.465,24.716,38.66,43.4,35.759c4.764-.739,9.25-0.095,13.213,3.388,0,0-7.51-2.072-10.541,3.17-2.992,5.176,10.111,18.375,13.26,24.248l-5.95-.317s4.931,11.728,4.081,19.493S50.151,100.8,50.151,100.8h0ZM39.4,80.75s6.2,4.412,8.58,9.673-1.7,12.388-1.7,12.388l10.03,0.17c-11.033,7.139-13.467,13.087-16.878,18.049,0.648-10.558,1.821-27.09-.033-40.28h0Zm1.9,4.264s2.21,4.582,1.615,14.509-1.275,14.085-1.275,14.085a12.01,12.01,0,0,1,3.145-4.667,37.011,37.011,0,0,1,5.61-4.285l-6.588-.424S50.568,91.293,41.3,85.014h0Zm11.492-.7c-3.187-3.716-5.83-6.882-10.37-8.083l3.145-1.109s5.695,5.071,7.225,9.192h0Zm-4.654-19.85-2.014-.756-5.414-9.528,3.3,9.883-1.146,1.114,1.87,0.538,5.175,9.27-3.1-9.758,1.13-.838,0.2,0.074h0ZM59.612,25.116a31.071,31.071,0,0,1,11.05-5.7,48.71,48.71,0,0,1,11.56-2.078l-2.21-1s-14.281,1.771-20.4,8.776h0Zm-19.441,17.4a37.455,37.455,0,0,0,9.776,18.225l-3.06-.713s-7.2-8.479-6.715-17.512h0ZM86.078,19.558A83.674,83.674,0,0,0,70.79,20.921C66.521,21.8,59.9,24.358,58,29.5c-2.161-10.345,13.694-16.525,22.385-18l-1.228,2.534s4.967,2.288,6.922,5.521h0ZM50.6,32.244L50.6,32.249l0,0,0,0,0,0,0,0h0l0,0,0,0h0l0,0,0,0h0v0l0,0,0,0h0l0,0,0,0H50.635l-0.011,0h0a24.263,24.263,0,0,0-5.971-.549,13.967,13.967,0,0,0-4.931,1.11s2.137-2.508,3.953-2.933a5.865,5.865,0,0,1,2.621.251,8.49,8.49,0,0,1-3.554-6.749c0.149,0.623,5.568,6.4,7.346,8.285l0.511,0.54h0Zm-4.863,5.636s-4.93,2.3-2.55,9.509,11.05,16.165,11.05,16.165l-5.143-.99c3.078,8.9,7.537,18.4,4.632,27.813-1.87-8.764-10.849-12.917-15.087-14.065a11.441,11.441,0,0,1,6.158-2.889s-8.58-14.623-8.07-25.479,9.01-10.064,9.01-10.064h0Zm7.161,4.333a23.521,23.521,0,0,1,3.315,6.5,78.222,78.222,0,0,1,2.125,8.32s-0.085-9.588-1.53-12.2a4.779,4.779,0,0,0-3.91-2.615h0Zm37.15-20.329s-14.79-.77-23.46,2.617S59.1,37.278,59.1,37.278a16.817,16.817,0,0,1-3.06-13.24c1.515-7.8,17.765-13.24,23.205-14.933s8.245-2.695,8.245-2.695l-5,6.955s6.869,3.437,7.549,8.518h0ZM55.953,20.5c-3.672,4.209-5,9.569-2.42,14.493a20.5,20.5,0,0,0-16.915.554c0.268-2.932,2.15-5.35,5.323-6.935L40.784,21.28l7.311,2.377A10.844,10.844,0,0,1,55.953,20.5h0ZM60.2,63.053L48.3,46.1,53.4,47.2c0.663-2.379-2.761-5.969-4.675-5.864,0,0,6.284-2.058,9.259,1.825S60.2,63.053,60.2,63.053h0ZM97.615,0c3.218,4.067,6.789,8.191,10.795,12.388-3.543,3.692-7.138,7.79-10.795,12.388-3.217-4.067-6.789-8.191-10.795-12.388C90.364,8.694,93.959,4.6,97.615,0h0Zm0,21.042c-2.248-2.841-4.743-5.722-7.541-8.654,2.475-2.579,4.986-5.442,7.541-8.654v3.4L91.75,12.683l5.865-3.552V9.869l-4.845,4.172,4.845-2.67v1.06l-3.485,3.179,3.485-1.691v7.121h0Zm0-18.666c2.6,3.287,5.487,6.62,8.725,10.012-2.864,2.984-5.769,6.3-8.725,10.012-2.6-3.287-5.487-6.62-8.725-10.012C91.755,9.4,94.66,6.09,97.615,2.375h0Zm58.16,78.375s-6.2,4.412-8.58,9.673,1.7,12.388,1.7,12.388l-10.03.17c11.033,7.139,13.467,13.087,16.877,18.049-0.647-10.558-1.821-27.09.033-40.28h0Zm-1.9,4.264s-2.209,4.582-1.615,14.509,1.276,14.085,1.276,14.085a12.014,12.014,0,0,0-3.146-4.667,37.02,37.02,0,0,0-5.61-4.285l6.588-.424s-6.758-12.939,2.507-19.218h0Zm-11.491-.7c3.187-3.716,5.83-6.882,10.37-8.083l-3.145-1.109s-5.695,5.071-7.225,9.192h0Zm4.653-19.85,2.014-.756,5.414-9.528-3.3,9.883,1.146,1.114-1.87.538-5.175,9.27,3.1-9.758-1.13-.838-0.2.074h0ZM135.568,25.116a31.08,31.08,0,0,0-11.05-5.7,48.717,48.717,0,0,0-11.561-2.078l2.21-1s14.281,1.771,20.4,8.776h0Zm19.441,17.4a37.455,37.455,0,0,1-9.776,18.225l3.061-.713s7.2-8.479,6.715-17.512h0ZM109.1,19.558a83.67,83.67,0,0,1,15.287,1.363c4.27,0.876,10.894,3.437,12.792,8.583,2.161-10.345-13.694-16.525-22.384-18l1.227,2.534s-4.967,2.288-6.922,5.521h0Zm35.483,12.686,0,0.005,0,0,0,0,0,0,0,0h0l0,0,0,0h0l0,0,0,0h0v0l0,0,0,0h0l0,0,0,0h0l0.011,0h0a24.255,24.255,0,0,1,5.971-.549,13.969,13.969,0,0,1,4.931,1.11s-2.137-2.508-3.953-2.933a5.865,5.865,0,0,0-2.621.251,8.49,8.49,0,0,0,3.554-6.749c-0.149.623-5.568,6.4-7.346,8.285l-0.51.54h0Zm4.863,5.636s4.929,2.3,2.549,9.509-11.05,16.165-11.05,16.165l5.143-.99c-3.078,8.9-7.537,18.4-4.633,27.813,1.87-8.764,10.85-12.917,15.088-14.065a11.443,11.443,0,0,0-6.158-2.889s8.58-14.623,8.07-25.479-9.009-10.064-9.009-10.064h0Zm-7.161,4.333a23.508,23.508,0,0,0-3.315,6.5,78.249,78.249,0,0,0-2.125,8.32s0.085-9.588,1.53-12.2a4.78,4.78,0,0,1,3.91-2.615h0ZM105.136,21.883s14.79-.77,23.461,2.617,7.48,12.778,7.48,12.778a16.816,16.816,0,0,0,3.06-13.24c-1.515-7.8-17.765-13.24-23.2-14.933s-8.246-2.695-8.246-2.695l5,6.955s-6.868,3.437-7.549,8.518h0ZM139.227,20.5c3.672,4.209,5,9.569,2.419,14.493a20.5,20.5,0,0,1,16.916.554c-0.268-2.932-2.15-5.35-5.323-6.935L154.4,21.28l-7.31,2.377a10.845,10.845,0,0,0-7.859-3.162h0Zm-4.251,42.557,11.9-16.957-5.1,1.109c-0.663-2.379,2.761-5.969,4.675-5.864,0,0-6.284-2.058-9.259,1.825s-2.217,19.888-2.217,19.888h0Zm-2.77,69.333c-2.656-1.77-5.923-2.538-13.133-2.079s-20.927,10.324-20.927,10.324,5.5-14.864,11.789-18.427,18.891-3.5,28.475-3.875,12.07-3.28,12.07-3.28-0.171,6.845-5.1,8.881-12.324.82-12.324,0.82,4.335,4.836-.85,7.636h0ZM77.006,116.7l-28.05-1.019,6.2-4.5L77.006,116.7h0Zm-21.822-7.02L97.8,120.544l42.37-10.691v-2.885l-42.51,7.594-42.467-7.47-0.01,2.591h0Zm42.557,6.356,0.021,3.288L138.84,108.58l-41.1,7.459h0ZM118.5,116.7l28.05-1.019-6.2-4.5L118.5,116.7h0ZM97.5,122.9l5.2,3.33L97.5,135.3l-5.284-9.073L97.5,122.9h0Zm0.043,10.281L93.712,126.6l3.833-2.416v9h0ZM65.6,126.913a25.149,25.149,0,0,1,11.092-.891c6.673,0.806,10.031,3.436,10.031,3.436a20.3,20.3,0,0,0-9.9-5.26c-6.163-1.273-8.968-.934-8.968-0.934L65.6,126.913h0Zm63.928,0a25.156,25.156,0,0,0-11.093-.891c-6.672.806-10.03,3.436-10.03,3.436a20.294,20.294,0,0,1,9.9-5.26c6.162-1.273,8.967-.934,8.967-0.934l2.253,3.649h0Zm17.681-7.763a58.576,58.576,0,0,1-8.073,1.179c-10.672.8-23.8-1-30.731,6.16-2.178,2.25-5.185,8.315-5.185,8.315a44.425,44.425,0,0,1,12.665-6.151c7.183-2.079,14.007-.4,16.364,1.527,1.046-2.506-1.082-5.434-2.509-7.212,3.079-.038,16.165.773,17.469-3.818h0Zm-98.636,0a50.148,50.148,0,0,0,7.789,1.179c10.672,0.8,23.8-1,30.731,6.16,2.178,2.25,5.185,8.315,5.185,8.315a44.424,44.424,0,0,0-12.665-6.151c-7.182-2.079-14.007-.4-16.363,1.527-1.046-2.506,1.081-5.434,2.508-7.212-3.078-.038-15.881.773-17.185-3.818h0Zm14.721,13.236c2.655-1.77,5.923-2.538,13.133-2.079s20.927,10.324,20.927,10.324-5.5-14.864-11.789-18.427-19.742-3.787-29.325-4.158-11.5-3-11.5-3-0.4,6.562,4.533,8.6,13.175,1.1,13.175,1.1-4.335,4.836.85,7.636h0ZM91.048,106a2.763,2.763,0,0,1-1.573,2.512,4.029,4.029,0,0,1-2,.441c-0.258,0-.473,0-0.641-0.007l-1.547-.033c-0.552,0-.981.014-1.281,0.04l-0.066-.066v-0.181l0.033-.077a2.208,2.208,0,0,0,.517-0.382,3.212,3.212,0,0,0,.07-0.858l0.02-1.448v-3.275a14.217,14.217,0,0,0-.084-2,0.285,0.285,0,0,0-.219-0.241c-0.066-.015-0.318-0.037-0.758-0.064l-0.064-.064V99.857l0.064-.06c0.384,0.027,1.043.04,1.979,0.04q0.9,0,1.613-.033,0.569-.026.963-0.027a2.732,2.732,0,0,1,2.371.821,1.727,1.727,0,0,1,.3,1,1.932,1.932,0,0,1-.718,1.531,2.477,2.477,0,0,1-.711.432,7.293,7.293,0,0,1-.932.278q2.667,0.116,2.666,2.165h0Zm-2.258-4.091a1.29,1.29,0,0,0-1.489-1.426,6.094,6.094,0,0,0-.835.05c-0.018.453-.026,0.873-0.026,1.255v1.782q0.149,0.013.6,0.013a1.541,1.541,0,0,0,1.54-.749,2.08,2.08,0,0,0,.214-0.925h0Zm0.278,4.292a1.759,1.759,0,0,0-2.039-1.938q-0.259,0-.59.017v2.993c0,0.32.009,0.639,0.026,0.95a4.861,4.861,0,0,0,.745.044,1.75,1.75,0,0,0,1.4-.569,2.252,2.252,0,0,0,.459-1.5h0Zm11.315,0.553a14.418,14.418,0,0,0-.142,2.133l-0.066.066-4.706-.04q-1.176,0-1.661.04l-0.066-.066v-0.181l0.033-.077a2.206,2.206,0,0,0,.517-0.382,3.269,3.269,0,0,0,.07-0.858l0.02-1.448v-3.275a14.152,14.152,0,0,0-.084-2,0.284,0.284,0,0,0-.218-0.241c-0.066-.015-0.318-0.037-0.758-0.064l-0.064-.064V99.857l0.064-.06q0.653,0.04,2.019.04,1.216,0,4.628-.04l0.071,0.053-0.084.717q-0.04.341-.059,0.582l-0.044.6-0.064.07H99.413l-0.066-.064a2.587,2.587,0,0,0-.1-1,1.444,1.444,0,0,0-.694-0.143c-0.417-.033-0.782-0.051-1.1-0.051q-0.563,0-1.14.044c-0.046.452-.071,1.081-0.071,1.881v1.336q0.51,0.034.828,0.034l0.848-.007a1.282,1.282,0,0,0,.674-0.1,2.072,2.072,0,0,0,.134-0.871l0.064-.066h0.4l0.064,0.066c-0.015.481-.024,0.924-0.024,1.323,0,0.437.009,0.911,0.024,1.429l-0.064.057H98.759l-0.066-.064a2.079,2.079,0,0,0-.1-0.882,0.988,0.988,0,0,0-.63-0.185c-0.263-.02-0.544-0.031-0.84-0.031-0.316,0-.61.011-0.882,0.031v1.971q0,0.847.033,1.641h0.879a10.058,10.058,0,0,0,2.317-.148,0.214,0.214,0,0,0,.1-0.072,1.178,1.178,0,0,0,.124-0.386l0.154-.8,0.064-.071h0.4l0.071,0.064h0Zm11.5,2.126-0.07.079c-0.643-.03-1.019-0.046-1.127-0.046-0.212,0-.405.005-0.577,0.014-0.253.012-.415,0.019-0.486,0.019a0.575,0.575,0,0,1-.362-0.116,7.56,7.56,0,0,1-.926-0.911l-3.015-3.368v1.533a14.668,14.668,0,0,0,.084,2,0.279,0.279,0,0,0,.221.238,6.843,6.843,0,0,0,.757.067l0.065,0.064v0.432l-0.06.066q-0.646-.039-1.993-0.04-1.392,0-1.993.04l-0.064-.059v-0.439l0.064-.064a6.97,6.97,0,0,0,.758-0.067,0.279,0.279,0,0,0,.219-0.238,14.332,14.332,0,0,0,.084-2v-3.418a14.292,14.292,0,0,0-.084-2,0.284,0.284,0,0,0-.219-0.241c-0.066-.015-0.318-0.037-0.758-0.064l-0.064-.064V99.857l0.064-.06q0.621,0.04,1.993.04,1.406,0,1.993-.04l0.06,0.06V100.3l-0.065.064c-0.441.027-.693,0.049-0.757,0.064a0.284,0.284,0,0,0-.221.241,14.468,14.468,0,0,0-.084,2v1.6q0.318-.33,1.385-1.415c0.375-.384.641-0.662,0.8-0.834q0.636-.7.848-0.981a1.392,1.392,0,0,0,.35-0.64,0.113,0.113,0,0,0-.058-0.11l-0.071-.06V99.861l0.078-.064q0.712,0.04,1.332.04,0.427,0,1.27-.04l0.071,0.064V100.3l-0.064.058a2.924,2.924,0,0,0-1.03.174,4.335,4.335,0,0,0-.854.622q-0.647.549-1.671,1.53c-0.254.249-.594,0.578-1.023,0.981l3.7,3.838a2.819,2.819,0,0,0,1.443.917l0.059,0.066v0.4h0ZM62.273,94.831L97.779,93.7l35.277,1.132,0.017,0.274L97.658,96.237,62.29,95.1l-0.017-.274h0Zm-47.447,77.26H7.462l-1.453,4.351,2.873,0.626-0.066,2.076H0.132L0,177.134l2.707-.758,5.976-15.425q0.429-1.054.809-2.142T10.2,156.6l3.83-.758,0.231,0.1,8.089,20.467,1.882,0.627-0.2,2.109H13.967l-0.165-2.01,2.509-.791-1.486-4.252h0Zm-5.283-6.262-1.255,3.724h5.679l-1.255-3.823-1.519-4.482H11.061l-1.519,4.581h0Zm25.886,8.141h0.132q0.231-.594.677-1.747t0.908-2.439q0.462-1.286.891-2.439T38.73,165.6l-2.311-.791v-1.779l6.835-.165,0.2,1.681a8.6,8.6,0,0,0-1.816,2.142,28.9,28.9,0,0,0-1.453,2.735l-4.325,9.624-2.84.561q-0.363-.759-0.875-1.879t-1.106-2.439q-0.594-1.319-1.2-2.719t-1.205-2.719q-0.594-1.319-1.106-2.439t-0.875-1.878l-1.585-.627V163.16L31.6,162.9a9.9,9.9,0,0,0,.33,1.829,16.077,16.077,0,0,0,.627,1.862l2.873,7.383h0ZM53.423,162.7a9.376,9.376,0,0,1,3.83.659,5.714,5.714,0,0,1,2.245,1.7,5.834,5.834,0,0,1,1.073,2.339,13.845,13.845,0,0,1,.314,2.555l-0.264.428-10.368.594a5.948,5.948,0,0,0,1.189,3.971,4.87,4.87,0,0,0,3.7,1.2,12.556,12.556,0,0,0,2.014-.214,13.39,13.39,0,0,0,2.41-.643l0.792,2.5a11.671,11.671,0,0,1-3.17,1.318,14.493,14.493,0,0,1-3.764.5,11.236,11.236,0,0,1-3.8-.561,6.168,6.168,0,0,1-2.526-1.631,6.343,6.343,0,0,1-1.4-2.6,12.908,12.908,0,0,1-.429-3.477,14.146,14.146,0,0,1,.346-3.1,7.366,7.366,0,0,1,1.255-2.785,6.5,6.5,0,0,1,2.493-1.994,9.439,9.439,0,0,1,4.062-.758h0Zm2.113,5.834a7.889,7.889,0,0,0-.1-1.269,3.153,3.153,0,0,0-.363-1.071,2,2,0,0,0-.743-0.742,2.354,2.354,0,0,0-1.205-.28,2.508,2.508,0,0,0-1.37.346,2.607,2.607,0,0,0-.875.923,4.052,4.052,0,0,0-.462,1.285,7.8,7.8,0,0,0-.132,1.434l5.25-.626h0Zm14.132,2.439v-0.693l4.788-4.943-1.882-.791,0.033-1.483q1.882-.066,3.863-0.132t3.863-.132v1.615a16.094,16.094,0,0,0-2.988,1.483,15.683,15.683,0,0,0-2.526,1.977l-1.552,1.483,8.155,8.339-0.33,1.318L77.328,180l-7.66-9.03h0Zm-0.33,5.635,2.113,0.791-0.066,1.747H62.338L62.206,177.5l2.509-1.022V163.736q0-1.894-.016-3.329t-0.017-1.9l-2.245-.659v-1.746l6.438-.957,0.4,0.166,0.066,21.29h0ZM111.8,163.753l-1.387-3.428a7.161,7.161,0,0,0-2.047-.807,10.1,10.1,0,0,0-2.245-.247,6.17,6.17,0,0,0-2.906.642,5.273,5.273,0,0,0-1.981,1.8,8.327,8.327,0,0,0-1.122,2.719,15.07,15.07,0,0,0-.364,3.412,11.007,11.007,0,0,0,1.4,6.1q1.4,2.109,4.8,2.109c0.176,0,.4-0.006.677-0.016s0.578-.039.908-0.083,0.665-.1,1.007-0.165a7.8,7.8,0,0,0,1.007-.263V170.18l-2.939-.923,0.132-1.912h9.443l0.1,2.175-2.278.561v9.2l-1.552.428-1.452-1.252a14.562,14.562,0,0,1-2.906.89,15.1,15.1,0,0,1-3,.33,12.584,12.584,0,0,1-4.853-.841,8.495,8.495,0,0,1-3.3-2.373,9.636,9.636,0,0,1-1.882-3.658,17.422,17.422,0,0,1-.594-4.7,16.149,16.149,0,0,1,.627-4.466,11.189,11.189,0,0,1,1.964-3.889A10.173,10.173,0,0,1,100.441,157a10.548,10.548,0,0,1,4.886-1.055,17.172,17.172,0,0,1,2.724.231,10.566,10.566,0,0,1,3.021,1.022l0.727-1.253h1.717l0.066,7.548-1.783.264h0Zm14.1,12.853,2.113,0.791-0.066,1.747H118.9l-0.132-1.648,2.509-1.022V163.736q0-1.894-.016-3.329t-0.017-1.9L119,157.853v-1.746l6.405-.957,0.4,0.166,0.1,21.29h0Zm21.494-5.6a10.542,10.542,0,0,1-.5,3.23,7.786,7.786,0,0,1-1.535,2.752,7.424,7.424,0,0,1-2.625,1.912,9.088,9.088,0,0,1-3.731.709,10.743,10.743,0,0,1-3.731-.577,6.467,6.467,0,0,1-2.543-1.648,6.726,6.726,0,0,1-1.469-2.6,11.654,11.654,0,0,1-.479-3.477,10.049,10.049,0,0,1,.529-3.263,7.647,7.647,0,0,1,4.275-4.63,9.277,9.277,0,0,1,3.781-.709,9.771,9.771,0,0,1,3.516.577,6.564,6.564,0,0,1,2.51,1.664,6.934,6.934,0,0,1,1.5,2.62,11.179,11.179,0,0,1,.5,3.444h0Zm-11.622-.23a19.166,19.166,0,0,0,.132,2.307,6.743,6.743,0,0,0,.5,1.911,3.3,3.3,0,0,0,1.007,1.319,2.724,2.724,0,0,0,1.7.494,2.869,2.869,0,0,0,1.667-.445,3.031,3.031,0,0,0,1.007-1.186,5.908,5.908,0,0,0,.512-1.7,13.083,13.083,0,0,0,.149-2.01,16.3,16.3,0,0,0-.149-2.208,7.421,7.421,0,0,0-.528-1.961,3.646,3.646,0,0,0-1.024-1.4,2.549,2.549,0,0,0-1.667-.527,2.726,2.726,0,0,0-1.7.494,3.378,3.378,0,0,0-1.007,1.269,5.674,5.674,0,0,0-.479,1.73,15.914,15.914,0,0,0-.115,1.912h0Zm15.353-12.195-2.278-.659v-1.747l6.438-.922,0.4,0.3v2.571q0,0.956-.017,2.043t-0.016,2.06v2.785l0.1,0.033L157.958,163a8.8,8.8,0,0,1,1.4-.281,10.5,10.5,0,0,1,1.172-.082,6.25,6.25,0,0,1,3.187.741,5.816,5.816,0,0,1,2.014,1.912,7.739,7.739,0,0,1,1.04,2.637,14.828,14.828,0,0,1,.3,2.95,14.551,14.551,0,0,1-.363,3.263,8.033,8.033,0,0,1-1.206,2.8,6.042,6.042,0,0,1-2.245,1.945,7.535,7.535,0,0,1-3.483.725,8.517,8.517,0,0,1-2.427-.379,9.588,9.588,0,0,1-2.559-1.237l-1.419,1.714-2.246-.56V158.578h0Zm11.028,12.689a11.8,11.8,0,0,0-.148-1.878,5.15,5.15,0,0,0-.529-1.632,3.1,3.1,0,0,0-1.023-1.137,2.9,2.9,0,0,0-1.635-.428,4.95,4.95,0,0,0-1.617.3,9.21,9.21,0,0,0-1.453.627v8.667a4.741,4.741,0,0,0,1.271.379,8.347,8.347,0,0,0,1.337.116,3.321,3.321,0,0,0,2.807-1.3,6.025,6.025,0,0,0,.99-3.708h0Zm16.806,5.8-2.212,2.109q-0.66.165-1.354,0.3a6.907,6.907,0,0,1-1.287.132,5.363,5.363,0,0,1-2.245-.412,4.162,4.162,0,0,1-1.453-1.072,3.907,3.907,0,0,1-.793-1.466,5.908,5.908,0,0,1-.231-1.632,6.613,6.613,0,0,1,.066-0.857,4.644,4.644,0,0,1,.248-0.988,4.031,4.031,0,0,1,.512-0.956,3.232,3.232,0,0,1,.891-0.824,7.479,7.479,0,0,1,.76-0.4,7.718,7.718,0,0,1,1.386-.445q0.892-.213,2.279-0.411t3.433-.3V168.6a2.315,2.315,0,0,0-.594-1.863,3.479,3.479,0,0,0-2.113-.477,18.37,18.37,0,0,0-2.311.181,15.985,15.985,0,0,0-2.576.543l-0.726-2.537a16.865,16.865,0,0,1,3.285-1.269,13.877,13.877,0,0,1,3.748-.511,6.962,6.962,0,0,1,4.374,1.22q1.569,1.22,1.569,4.152v7.91l2.542,0.593v1.78a8.245,8.245,0,0,1-2.014.857,8.43,8.43,0,0,1-2.41.363,5.969,5.969,0,0,1-.875-0.066,1.916,1.916,0,0,1-.809-0.314,2.014,2.014,0,0,1-.627-0.741,3.824,3.824,0,0,1-.363-1.351h-0.1Zm-2.938-.66a4.307,4.307,0,0,0,1.419-.28,5.423,5.423,0,0,0,1.519-.84v-3.3a11.339,11.339,0,0,0-2.575.5,5.013,5.013,0,0,0-1.387.692,1.579,1.579,0,0,0-.578.741,2.35,2.35,0,0,0-.115.676,1.99,1.99,0,0,0,.413,1.318,1.6,1.6,0,0,0,1.3.494h0Zm19.447,0.2,2.114,0.791-0.067,1.747h-9.046l-0.133-1.648,2.51-1.022V163.736q0-1.894-.017-3.329t-0.016-1.9l-2.245-.659v-1.746l6.405-.957,0.4,0.166,0.1,21.29h0Zm96.134-4.515h-7.363l-1.453,4.351,2.872,0.626-0.066,2.076h-8.683l-0.132-2.01,2.707-.758,5.976-15.425q0.429-1.054.809-2.142t0.71-2.208l3.83-.758,0.231,0.1,8.09,20.467,1.882,0.627-0.2,2.109h-10.07l-0.165-2.01,2.509-.791-1.485-4.252h0Zm-5.283-6.262-1.255,3.724h5.679l-1.255-3.823-1.518-4.482h-0.132l-1.519,4.581h0Zm15.881-.989,0.264-1.812q1.058,0.033,2.3.033h2.13q1.188,0,2.328-.033t2.426-.033a8.3,8.3,0,0,1,2.856.412,4.859,4.859,0,0,1,1.717,1,3.093,3.093,0,0,1,.826,1.252,3.809,3.809,0,0,1,.215,1.154,2.618,2.618,0,0,1-.215,1.054,3.647,3.647,0,0,1-.562.907,4.4,4.4,0,0,1-.776.725,4.036,4.036,0,0,1-.825.478v0.066a4.882,4.882,0,0,1,2.493,1.532,4.05,4.05,0,0,1,.941,2.719,4.231,4.231,0,0,1-.462,1.978,4.718,4.718,0,0,1-1.271,1.532,5.915,5.915,0,0,1-1.882.989,7.431,7.431,0,0,1-2.3.346q-1.19,0-2-.016t-1.354-.033q-0.544-.016-0.891-0.017h-0.677q-1.617,0-2.856.017t-2.459.049L302,177.4q0.563-.163,1.139-0.313t1.139-.313V165.4l-2.08-.561h0Zm7.693,4.515a4.9,4.9,0,0,0,1.585-.263,2.772,2.772,0,0,0,.908-0.528,1.44,1.44,0,0,0,.413-0.626,1.937,1.937,0,0,0,.1-0.527,1.453,1.453,0,0,0-.809-1.384,4.3,4.3,0,0,0-2.03-.429q-0.231,0-.628.017t-0.759.049v10.712a5.3,5.3,0,0,0,.842.148q0.478,0.049.776,0.049a4.231,4.231,0,0,0,2.707-.725,2.242,2.242,0,0,0,.892-1.812,2.812,2.812,0,0,0-.182-1.006,2.046,2.046,0,0,0-.644-0.856,3.335,3.335,0,0,0-1.271-.594,9.041,9.041,0,0,0-2.031-.247l-0.2-1.648,0.33-.33h0Zm19.151-6.657a9.377,9.377,0,0,1,3.83.659,5.716,5.716,0,0,1,2.245,1.7,5.836,5.836,0,0,1,1.073,2.339,13.854,13.854,0,0,1,.314,2.555l-0.264.428-10.368.594a5.945,5.945,0,0,0,1.189,3.971,4.87,4.87,0,0,0,3.7,1.2,12.565,12.565,0,0,0,2.014-.214,13.392,13.392,0,0,0,2.41-.643l0.792,2.5a11.67,11.67,0,0,1-3.169,1.318,14.5,14.5,0,0,1-3.764.5,11.234,11.234,0,0,1-3.8-.561,6.163,6.163,0,0,1-2.526-1.631,6.335,6.335,0,0,1-1.4-2.6,12.875,12.875,0,0,1-.43-3.477,14.153,14.153,0,0,1,.347-3.1,7.351,7.351,0,0,1,1.255-2.785,6.5,6.5,0,0,1,2.492-1.994,9.442,9.442,0,0,1,4.062-.758h0Zm2.113,5.834a7.9,7.9,0,0,0-.1-1.269,3.149,3.149,0,0,0-.363-1.071,2,2,0,0,0-.743-0.742,2.354,2.354,0,0,0-1.2-.28,2.505,2.505,0,0,0-1.37.346,2.6,2.6,0,0,0-.875.923,4.041,4.041,0,0,0-.463,1.285,7.807,7.807,0,0,0-.132,1.434l5.25-.626h0Zm14.132,2.439v-0.693l4.787-4.943-1.882-.791,0.033-1.483q1.882-.066,3.863-0.132t3.863-.132v1.615a15,15,0,0,0-2.971,1.5,19.957,19.957,0,0,0-2.543,1.96l-1.716,1.582,8.32,8.24-0.33,1.318-3.533.989-7.891-9.03h0Zm-0.331,5.635,2.114,0.791L347,179.144h-9.047l-0.132-1.648,2.509-1.022v-7.4q0-1.105-.016-2T340.3,165.73l-2.245-.659v-1.714l6.438-.988,0.4,0.2,0.066,14.04h0Zm24.665-18.16,0.2-2.01q0.825,0.033,2.014.049l2.41,0.033q1.223,0.018,2.3.017h1.734q2.277,0,4.292-.033t4.325-.1l0.363,0.2,0.066,6.295-1.651.329-1.551-3.691h-1.4q-0.941,0-2-.016T378.7,159.5h-1.453l-0.033,16.842,3.335,0.758-0.1,2.043h-11l-0.165-1.879,2.938-.889V159.237l-2.608-.791h0ZM400.658,163h2.129q0.942,0,1.833-.017l1.816-.033q0.924-.017,2.113-0.049l0.066,1.878-2.443.528v11.3l2.179,0.791-0.1,1.747h-8.585l-0.1-1.813,2.146-.791V165.4h-3.83q-0.132,3.2-.446,5.8a19,19,0,0,1-1.023,4.466,6.99,6.99,0,0,1-1.9,2.884,4.445,4.445,0,0,1-3,1.021,4.679,4.679,0,0,1-1.106-.131,3.088,3.088,0,0,1-.974-0.412,2.383,2.383,0,0,1-.694-0.676,1.621,1.621,0,0,1-.264-0.923,2.7,2.7,0,0,1,1.651-2.241l2.806,1.747a5.7,5.7,0,0,0,1.041-1.384,9.338,9.338,0,0,0,.825-2.208,24.206,24.206,0,0,0,.561-3.3q0.214-1.945.281-4.647l-2.773-.693,0.165-1.845q1.254,0.066,2.1.082l1.618,0.033q0.775,0.017,1.668.017h2.245ZM427.831,171a10.542,10.542,0,0,1-.5,3.23,7.786,7.786,0,0,1-1.535,2.752,7.424,7.424,0,0,1-2.625,1.912,9.084,9.084,0,0,1-3.731.709,10.743,10.743,0,0,1-3.731-.577,6.467,6.467,0,0,1-2.543-1.648,6.726,6.726,0,0,1-1.469-2.6,11.654,11.654,0,0,1-.479-3.477,10.049,10.049,0,0,1,.529-3.263,7.647,7.647,0,0,1,4.275-4.63,9.277,9.277,0,0,1,3.781-.709,9.78,9.78,0,0,1,3.517.577,6.568,6.568,0,0,1,2.509,1.664,6.934,6.934,0,0,1,1.5,2.62,11.179,11.179,0,0,1,.5,3.444h0Zm-11.622-.23a19.166,19.166,0,0,0,.132,2.307,6.709,6.709,0,0,0,.5,1.911,3.293,3.293,0,0,0,1.006,1.319,2.726,2.726,0,0,0,1.7.494,2.869,2.869,0,0,0,1.667-.445,3.041,3.041,0,0,0,1.008-1.186,5.939,5.939,0,0,0,.511-1.7,13.083,13.083,0,0,0,.149-2.01,16.3,16.3,0,0,0-.149-2.208,7.421,7.421,0,0,0-.528-1.961,3.636,3.636,0,0,0-1.024-1.4,2.549,2.549,0,0,0-1.667-.527,2.726,2.726,0,0,0-1.7.494,3.388,3.388,0,0,0-1.007,1.269,5.645,5.645,0,0,0-.478,1.73,15.915,15.915,0,0,0-.116,1.912h0Zm22.386-3.889a5.381,5.381,0,0,0-1.6.263,9.8,9.8,0,0,0-1.6.66q-0.066.857-.1,1.548t-0.034,1.451a18.508,18.508,0,0,0,.149,2.455,6.011,6.011,0,0,0,.545,1.9,2.8,2.8,0,0,0,2.74,1.648,2.425,2.425,0,0,0,1.618-.527,3.562,3.562,0,0,0,.974-1.319,6.566,6.566,0,0,0,.479-1.7,11.614,11.614,0,0,0,.132-1.664,7.608,7.608,0,0,0-.264-2.143,4.443,4.443,0,0,0-.71-1.466,2.693,2.693,0,0,0-1.04-.841,3.153,3.153,0,0,0-1.288-.263h0Zm-0.363-3.2a9.612,9.612,0,0,1,1.882-.2,6.074,6.074,0,0,1,4.9,2.044,8.6,8.6,0,0,1,1.733,5.734,10.1,10.1,0,0,1-.462,3.032,7.686,7.686,0,0,1-1.453,2.67,7.291,7.291,0,0,1-2.525,1.912,8.568,8.568,0,0,1-3.682.725q-4.126,0-6.158-2.423t-2.03-7.531a25.019,25.019,0,0,1,.528-5.487,13.483,13.483,0,0,1,1.469-3.906,7.488,7.488,0,0,1,2.179-2.422,6.229,6.229,0,0,1,2.692-1.039q1.023-.13,1.882-0.247a12.879,12.879,0,0,0,1.65-.329,8.988,8.988,0,0,0,1.6-.61,9.919,9.919,0,0,0,1.733-1.121,4.007,4.007,0,0,1,1.255,1.2,2.412,2.412,0,0,1,.4,1.269,1.68,1.68,0,0,1-1.222,1.615,9.217,9.217,0,0,1-3.367.5q-0.662,0-1.057-.017t-0.66-.016c-0.176,0-.336-0.006-0.479-0.017s-0.3-.016-0.479-0.016a2.121,2.121,0,0,0-1.486.511,3.346,3.346,0,0,0-.875,1.433,10.728,10.728,0,0,0-.462,2.159q-0.148,1.236-.215,2.686l2.708-2.109h0Zm20.339,13.381-2.212,2.109q-0.661.165-1.354,0.3a6.917,6.917,0,0,1-1.288.132,5.367,5.367,0,0,1-2.245-.412,4.181,4.181,0,0,1-1.453-1.072,3.891,3.891,0,0,1-.792-1.466,5.908,5.908,0,0,1-.231-1.632,6.613,6.613,0,0,1,.066-0.857,4.641,4.641,0,0,1,.247-0.988,4.031,4.031,0,0,1,.512-0.956,3.236,3.236,0,0,1,.892-0.824,7.444,7.444,0,0,1,.759-0.4,7.733,7.733,0,0,1,1.387-.445q0.891-.213,2.278-0.411t3.434-.3V168.6a2.315,2.315,0,0,0-.594-1.863,3.483,3.483,0,0,0-2.114-.477,18.383,18.383,0,0,0-2.311.181,15.972,15.972,0,0,0-2.575.543l-0.727-2.537a16.9,16.9,0,0,1,3.286-1.269,13.87,13.87,0,0,1,3.747-.511,6.966,6.966,0,0,1,4.375,1.22q1.569,1.22,1.568,4.152v7.91l2.543,0.593v1.78a8.262,8.262,0,0,1-2.014.857,8.437,8.437,0,0,1-2.411.363,5.98,5.98,0,0,1-.875-0.066,1.922,1.922,0,0,1-.809-0.314,2.014,2.014,0,0,1-.627-0.741,3.845,3.845,0,0,1-.363-1.351h-0.1Zm-2.939-.66a4.312,4.312,0,0,0,1.42-.28,5.437,5.437,0,0,0,1.519-.84v-3.3a11.327,11.327,0,0,0-2.575.5,5,5,0,0,0-1.387.692,1.572,1.572,0,0,0-.578.741,2.355,2.355,0,0,0-.116.676,1.99,1.99,0,0,0,.413,1.318,1.6,1.6,0,0,0,1.3.494h0ZM479.042,163h2.13q0.94,0,1.832-.017l1.816-.033q0.924-.017,2.113-0.049L487,164.774l-2.443.528v11.3l2.179,0.791-0.1,1.747h-8.584l-0.1-1.813,2.146-.791V165.4h-3.829q-0.132,3.2-.446,5.8a19,19,0,0,1-1.024,4.466,7,7,0,0,1-1.9,2.884,4.448,4.448,0,0,1-3,1.021,4.679,4.679,0,0,1-1.106-.131,3.1,3.1,0,0,1-.974-0.412,2.392,2.392,0,0,1-.693-0.676,1.622,1.622,0,0,1-.265-0.923,2.7,2.7,0,0,1,1.651-2.241l2.807,1.747a5.7,5.7,0,0,0,1.04-1.384,9.338,9.338,0,0,0,.825-2.208,24.191,24.191,0,0,0,.562-3.3q0.215-1.945.28-4.647l-2.773-.693,0.165-1.845q1.254,0.066,2.1.082l1.619,0.033q0.774,0.017,1.667.017h2.245ZM125.387,55.18l-2.356-5.6a9.351,9.351,0,0,0-2.983-1.151,15.556,15.556,0,0,0-3.032-.314,8,8,0,0,0-3.885.889,7.8,7.8,0,0,0-2.732,2.51,11.451,11.451,0,0,0-1.629,3.9,22.411,22.411,0,0,0-.526,5.046A22.712,22.712,0,0,0,108.82,66a10.12,10.12,0,0,0,1.629,3.634,5.909,5.909,0,0,0,2.607,1.988,9.66,9.66,0,0,0,3.508.6q0.7,0,2.056-.131a7.847,7.847,0,0,0,2.506-.654V64.907l-4.411-1.516,0.251-3.608h15.488l0.251,4.079-3.458.837V78.556l-2.908.784-2.356-2.092a17.164,17.164,0,0,1-4.235,1.517,21.619,21.619,0,0,1-4.888.575,18.433,18.433,0,0,1-7.669-1.438,13.481,13.481,0,0,1-5.113-3.922,16.057,16.057,0,0,1-2.857-5.857,27.948,27.948,0,0,1-.9-7.243A23.727,23.727,0,0,1,99.4,53.768a18.609,18.609,0,0,1,3.233-6.145,16.159,16.159,0,0,1,5.313-4.314,15.8,15.8,0,0,1,7.318-1.621,26.306,26.306,0,0,1,4.311.366,16.363,16.363,0,0,1,4.612,1.569l1.152-1.935h3.108l0.1,12.969-3.158.523h0ZM95.21,73.646h0.868L84.722,43.45l-1.376.3L95.21,73.646h0Zm33-8.3h-0.806V77.56l0.806-.283V65.342h0Zm-0.568-22.885h-0.806V54.109l0.806-.283V42.458h0ZM84.831,67.626H74.4L72.45,73.954,76.46,74.9l-0.2,3.87H62.725l-0.251-3.713L66.785,73.8l8.572-22.853q1.454-3.818,2.607-7.739l7.218-1.464,0.4,0.157L98.014,73.85l2.807,0.941-0.451,3.975H83.678L83.277,75l3.509-1.255-1.955-6.118h0Zm-7.318-9.988h0L75.858,62.92h7.469l-1.654-5.438-1.954-6.328-0.2.052-2,6.432h0ZM428.84,100.8a16.634,16.634,0,0,1,.51-13.629c3.57-7.132,15.895-9.667,15.895-9.667s-3.57-4.516-7.607-5.587c4.252-7.448,16.637-33.253-2.047-36.154-4.764-.739-9.25-0.095-13.213,3.388,0,0,7.51-2.072,10.54,3.17,2.993,5.176-10.11,18.375-13.259,24.248l5.95-.317s-4.931,11.728-4.081,19.493S428.84,100.8,428.84,100.8h0Zm-94.878,0a16.639,16.639,0,0,0-.51-13.629c-3.57-7.132-15.895-9.667-15.895-9.667s3.57-4.516,7.607-5.587c-4.252-7.448-16.637-33.253,2.047-36.154,4.764-.739,9.25-0.095,13.213,3.388,0,0-7.51-2.072-10.541,3.17-2.992,5.176,10.111,18.375,13.26,24.248l-5.95-.317s4.931,11.728,4.081,19.493-7.312,15.056-7.312,15.056h0ZM323.216,80.75s6.2,4.412,8.58,9.673-1.7,12.388-1.7,12.388l10.031,0.17c-11.033,7.139-13.467,13.087-16.878,18.049,0.648-10.558,1.822-27.09-.032-40.28h0Zm1.9,4.264s2.209,4.582,1.615,14.509-1.276,14.085-1.276,14.085a12.014,12.014,0,0,1,3.146-4.667,37.02,37.02,0,0,1,5.61-4.285l-6.588-.424s6.758-12.939-2.507-19.218h0Zm11.491-.7c-3.187-3.716-5.83-6.882-10.37-8.083l3.145-1.109s5.695,5.071,7.225,9.192h0Zm-4.654-19.85-2.013-.756-5.414-9.528,3.3,9.883-1.146,1.114,1.87,0.538,5.175,9.27-3.1-9.758,1.13-.838,0.2,0.074h0Zm11.472-39.349a31.068,31.068,0,0,1,11.05-5.7,48.714,48.714,0,0,1,11.56-2.078l-2.21-1s-14.28,1.771-20.4,8.776h0Zm-19.441,17.4a37.456,37.456,0,0,0,9.775,18.225l-3.06-.713s-7.2-8.479-6.715-17.512h0Zm45.907-22.958A83.684,83.684,0,0,0,354.6,20.921c-4.269.876-10.894,3.437-12.792,8.583-2.16-10.345,13.695-16.525,22.385-18l-1.228,2.534s4.968,2.288,6.923,5.521h0ZM334.406,32.244l0,0.005,0,0,0,0,0,0,0,0h0l0,0,0,0h0l0,0,0,0h0v0l0,0v0h0l0,0,0,0h0l-0.011,0h0a24.255,24.255,0,0,0-5.971-.549,13.969,13.969,0,0,0-4.931,1.11s2.137-2.508,3.953-2.933a5.866,5.866,0,0,1,2.621.251,8.49,8.49,0,0,1-3.554-6.749c0.149,0.623,5.568,6.4,7.345,8.285l0.511,0.54h0Zm-4.863,5.636s-4.929,2.3-2.549,9.509,11.05,16.165,11.05,16.165l-5.143-.99c3.078,8.9,7.537,18.4,4.632,27.813-1.869-8.764-10.849-12.917-15.087-14.065a11.443,11.443,0,0,1,6.158-2.889s-8.581-14.623-8.071-25.479,9.01-10.064,9.01-10.064h0Zm7.161,4.333a23.508,23.508,0,0,1,3.315,6.5,78.249,78.249,0,0,1,2.125,8.32s-0.085-9.588-1.53-12.2a4.78,4.78,0,0,0-3.91-2.615h0Zm37.15-20.329s-14.79-.77-23.46,2.617-7.48,12.778-7.48,12.778a16.816,16.816,0,0,1-3.06-13.24c1.515-7.8,17.765-13.24,23.205-14.933S371.3,6.411,371.3,6.411l-5,6.955s6.869,3.437,7.549,8.518h0ZM339.764,20.5c-3.672,4.209-5,9.569-2.42,14.493a20.5,20.5,0,0,0-16.915.554c0.268-2.932,2.15-5.35,5.323-6.935l-1.158-7.328,7.311,2.377a10.842,10.842,0,0,1,7.859-3.162h0Zm4.25,42.557L332.114,46.1l5.1,1.109c0.663-2.379-2.762-5.969-4.675-5.864,0,0,6.284-2.058,9.259,1.825s2.216,19.888,2.216,19.888h0ZM381.426,0c3.218,4.067,6.789,8.191,10.8,12.388-3.543,3.692-7.138,7.79-10.8,12.388-3.217-4.067-6.788-8.191-10.794-12.388C374.175,8.694,377.77,4.6,381.426,0h0Zm0,21.042c-2.247-2.841-4.742-5.722-7.541-8.654,2.476-2.579,4.987-5.442,7.541-8.654v3.4l-5.865,5.554,5.865-3.552V9.869l-4.844,4.172,4.844-2.67v1.06l-3.484,3.179,3.484-1.691v7.121h0Zm0-18.666c2.6,3.287,5.487,6.62,8.725,10.012-2.864,2.984-5.769,6.3-8.725,10.012-2.6-3.287-5.486-6.62-8.724-10.012,2.864-2.984,5.769-6.3,8.724-10.012h0Zm58.16,78.375s-6.2,4.412-8.58,9.673,1.7,12.388,1.7,12.388l-10.03.17c11.033,7.139,13.467,13.087,16.877,18.049-0.647-10.558-1.821-27.09.033-40.28h0Zm-1.9,4.264s-2.209,4.582-1.615,14.509,1.276,14.085,1.276,14.085a12.014,12.014,0,0,0-3.146-4.667,37.02,37.02,0,0,0-5.61-4.285l6.588-.424s-6.758-12.939,2.507-19.218h0Zm-11.491-.7c3.187-3.716,5.83-6.882,10.37-8.083l-3.145-1.109s-5.7,5.071-7.225,9.192h0Zm4.653-19.85,2.014-.756,5.414-9.528-3.3,9.883,1.146,1.114-1.87.538-5.175,9.27,3.1-9.758-1.13-.838-0.2.074h0ZM419.379,25.116a31.08,31.08,0,0,0-11.05-5.7,48.717,48.717,0,0,0-11.561-2.078l2.21-1s14.281,1.771,20.4,8.776h0Zm19.441,17.4a37.464,37.464,0,0,1-9.775,18.225l3.06-.713s7.2-8.479,6.715-17.512h0ZM392.913,19.558A83.67,83.67,0,0,1,408.2,20.921c4.27,0.876,10.894,3.437,12.792,8.583,2.161-10.345-13.694-16.525-22.384-18l1.228,2.534s-4.968,2.288-6.923,5.521h0ZM428.4,32.244l0,0.005,0,0,0,0-0.005,0,0,0h0l0,0,0,0h0l0,0,0,0h0v0l0,0,0,0h0l0,0,0,0h0l0.011,0h0a24.255,24.255,0,0,1,5.971-.549,13.969,13.969,0,0,1,4.931,1.11s-2.137-2.508-3.953-2.933a5.865,5.865,0,0,0-2.621.251,8.49,8.49,0,0,0,3.554-6.749c-0.149.623-5.568,6.4-7.346,8.285l-0.51.54h0Zm4.863,5.636s4.929,2.3,2.549,9.509-11.05,16.165-11.05,16.165l5.143-.99c-3.078,8.9-7.537,18.4-4.632,27.813,1.869-8.764,10.849-12.917,15.087-14.065a11.443,11.443,0,0,0-6.158-2.889s8.58-14.623,8.07-25.479-9.009-10.064-9.009-10.064h0ZM426.1,42.212a23.508,23.508,0,0,0-3.315,6.5,78.249,78.249,0,0,0-2.125,8.32s0.085-9.588,1.53-12.2a4.78,4.78,0,0,1,3.91-2.615h0ZM388.947,21.883s14.791-.77,23.461,2.617,7.48,12.778,7.48,12.778a16.816,16.816,0,0,0,3.06-13.24c-1.515-7.8-17.765-13.24-23.2-14.933S391.5,6.411,391.5,6.411l5,6.955s-6.868,3.437-7.549,8.518h0ZM423.038,20.5c3.672,4.209,5,9.569,2.419,14.493a20.5,20.5,0,0,1,16.916.554c-0.268-2.932-2.15-5.35-5.323-6.935l1.157-7.328-7.31,2.377a10.845,10.845,0,0,0-7.859-3.162h0Zm-4.25,42.557,11.9-16.957-5.1,1.109c-0.663-2.379,2.761-5.969,4.675-5.864,0,0-6.284-2.058-9.259,1.825s-2.216,19.888-2.216,19.888h0Zm-2.771,69.333c-2.656-1.77-5.923-2.538-13.133-2.079s-20.927,10.324-20.927,10.324,5.5-14.864,11.789-18.427,18.891-3.5,28.475-3.875,12.07-3.28,12.07-3.28-0.17,6.845-5.1,8.881-12.324.82-12.324,0.82,4.335,4.836-.85,7.636h0Zm-55.2-15.683-28.05-1.019,6.2-4.5,21.846,5.515h0ZM339,109.683l42.617,10.861,42.37-10.691v-2.885l-42.51,7.594-42.467-7.47L339,109.683h0Zm42.557,6.356,0.022,3.288,41.077-10.747-41.1,7.459h0Zm20.754,0.664,28.05-1.019-6.2-4.5L402.306,116.7h0ZM381.314,122.9l5.2,3.33-5.2,9.073-5.285-9.073,5.285-3.33h0Zm0.043,10.281-3.834-6.583,3.834-2.416v9h0Zm-31.945-6.265a25.156,25.156,0,0,1,11.093-.891c6.672,0.806,10.03,3.436,10.03,3.436a20.3,20.3,0,0,0-9.9-5.26c-6.162-1.273-8.967-.934-8.967-0.934l-2.253,3.649h0Zm63.928,0a25.156,25.156,0,0,0-11.093-.891c-6.672.806-10.03,3.436-10.03,3.436a20.294,20.294,0,0,1,9.9-5.26c6.162-1.273,8.967-.934,8.967-0.934l2.253,3.649h0Zm17.681-7.763a58.576,58.576,0,0,1-8.073,1.179c-10.672.8-23.8-1-30.731,6.16-2.178,2.25-5.185,8.315-5.185,8.315a44.425,44.425,0,0,1,12.665-6.151c7.183-2.079,14.007-.4,16.364,1.527,1.046-2.506-1.082-5.434-2.509-7.212,3.079-.038,16.165.773,17.469-3.818h0Zm-98.636,0a50.17,50.17,0,0,0,7.789,1.179c10.672,0.8,23.8-1,30.732,6.16,2.178,2.25,5.185,8.315,5.185,8.315a44.422,44.422,0,0,0-12.666-6.151c-7.182-2.079-14.007-.4-16.363,1.527-1.046-2.506,1.081-5.434,2.508-7.212-3.078-.038-15.881.773-17.185-3.818h0Zm14.721,13.236c2.655-1.77,5.923-2.538,13.133-2.079s20.927,10.324,20.927,10.324-5.5-14.864-11.79-18.427-19.742-3.787-29.325-4.158-11.5-3-11.5-3-0.4,6.562,4.533,8.6,13.175,1.1,13.175,1.1-4.335,4.836.85,7.636h0ZM374.859,106a2.763,2.763,0,0,1-1.573,2.512,4.026,4.026,0,0,1-2,.441q-0.388,0-.641-0.007l-1.547-.033c-0.552,0-.98.014-1.281,0.04l-0.066-.066v-0.181l0.033-.077a2.193,2.193,0,0,0,.517-0.382,3.189,3.189,0,0,0,.07-0.858l0.021-1.448v-3.275a14.292,14.292,0,0,0-.084-2,0.285,0.285,0,0,0-.219-0.241c-0.066-.015-0.318-0.037-0.758-0.064l-0.064-.064V99.857l0.064-.06q0.576,0.04,1.98.04,0.894,0,1.612-.033,0.57-.026.963-0.027a2.734,2.734,0,0,1,2.371.821,1.726,1.726,0,0,1,.3,1,1.931,1.931,0,0,1-.718,1.531,2.471,2.471,0,0,1-.711.432,7.3,7.3,0,0,1-.933.278q2.668,0.116,2.667,2.165h0Zm-2.258-4.091a1.29,1.29,0,0,0-1.489-1.426,6.09,6.09,0,0,0-.835.05c-0.018.453-.026,0.873-0.026,1.255v1.782q0.149,0.013.6,0.013a1.542,1.542,0,0,0,1.54-.749,2.08,2.08,0,0,0,.214-0.925h0Zm0.278,4.292a1.759,1.759,0,0,0-2.039-1.938c-0.172,0-.369.006-0.589,0.017v2.993c0,0.32.008,0.639,0.026,0.95a4.859,4.859,0,0,0,.744.044,1.75,1.75,0,0,0,1.4-.569,2.251,2.251,0,0,0,.459-1.5h0Zm11.315,0.553a14.418,14.418,0,0,0-.142,2.133l-0.066.066-4.706-.04q-1.176,0-1.661.04l-0.066-.066v-0.181l0.033-.077a2.193,2.193,0,0,0,.517-0.382,3.285,3.285,0,0,0,.07-0.858l0.021-1.448v-3.275a14.075,14.075,0,0,0-.085-2,0.283,0.283,0,0,0-.218-0.241c-0.066-.015-0.318-0.037-0.758-0.064l-0.064-.064V99.857l0.064-.06q0.652,0.04,2.019.04,1.217,0,4.628-.04l0.071,0.053-0.084.717q-0.039.341-.059,0.582l-0.045.6-0.064.07h-0.375l-0.067-.064a2.6,2.6,0,0,0-.1-1,1.452,1.452,0,0,0-.694-0.143c-0.417-.033-0.782-0.051-1.1-0.051q-0.564,0-1.14.044c-0.046.452-.071,1.081-0.071,1.881v1.336q0.512,0.034.829,0.034l0.848-.007a1.281,1.281,0,0,0,.674-0.1,2.076,2.076,0,0,0,.135-0.871l0.064-.066H383l0.064,0.066c-0.016.481-.024,0.924-0.024,1.323,0,0.437.008,0.911,0.024,1.429l-0.064.057H382.57l-0.066-.064a2.081,2.081,0,0,0-.1-0.882,0.986,0.986,0,0,0-.629-0.185c-0.263-.02-0.544-0.031-0.84-0.031-0.316,0-.61.011-0.882,0.031v1.971q0,0.847.034,1.641h0.879a10.056,10.056,0,0,0,2.317-.148,0.211,0.211,0,0,0,.1-0.072,1.179,1.179,0,0,0,.124-0.386l0.154-.8,0.064-.071h0.4l0.071,0.064h0Zm11.5,2.126-0.07.079c-0.643-.03-1.019-0.046-1.127-0.046-0.212,0-.405.005-0.577,0.014-0.253.012-.415,0.019-0.486,0.019a0.575,0.575,0,0,1-.362-0.116,7.56,7.56,0,0,1-.926-0.911l-3.015-3.368v1.533a14.668,14.668,0,0,0,.084,2,0.279,0.279,0,0,0,.221.238,6.843,6.843,0,0,0,.757.067l0.065,0.064v0.432l-0.06.066q-0.647-.039-1.993-0.04-1.392,0-1.993.04l-0.064-.059v-0.439l0.064-.064a6.97,6.97,0,0,0,.758-0.067,0.279,0.279,0,0,0,.219-0.238,14.332,14.332,0,0,0,.084-2v-3.418a14.292,14.292,0,0,0-.084-2,0.284,0.284,0,0,0-.219-0.241c-0.066-.015-0.318-0.037-0.758-0.064l-0.064-.064V99.857l0.064-.06q0.621,0.04,1.993.04,1.406,0,1.993-.04l0.06,0.06V100.3l-0.065.064c-0.441.027-.693,0.049-0.757,0.064a0.284,0.284,0,0,0-.221.241,14.468,14.468,0,0,0-.084,2v1.6q0.318-.33,1.385-1.415,0.564-.576.8-0.834,0.638-.7.848-0.981a1.392,1.392,0,0,0,.35-0.64,0.113,0.113,0,0,0-.058-0.11l-0.071-.06V99.861l0.078-.064q0.713,0.04,1.332.04,0.428,0,1.27-.04l0.071,0.064V100.3l-0.064.058a2.924,2.924,0,0,0-1.03.174,4.335,4.335,0,0,0-.854.622q-0.647.549-1.671,1.53c-0.254.249-.594,0.578-1.023,0.981l3.7,3.838a2.819,2.819,0,0,0,1.443.917l0.059,0.066v0.4h0ZM346.084,94.831L381.59,93.7l35.276,1.132,0.017,0.274-35.414,1.132L346.1,95.1l-0.017-.274h0ZM409.2,55.18l-2.356-5.6a9.351,9.351,0,0,0-2.983-1.151,15.556,15.556,0,0,0-3.032-.314,8,8,0,0,0-3.885.889,7.8,7.8,0,0,0-2.732,2.51,11.451,11.451,0,0,0-1.629,3.9,22.411,22.411,0,0,0-.526,5.046A22.712,22.712,0,0,0,392.631,66a10.12,10.12,0,0,0,1.629,3.634,5.909,5.909,0,0,0,2.607,1.988,9.66,9.66,0,0,0,3.508.6q0.7,0,2.056-.131a7.847,7.847,0,0,0,2.506-.654V64.907l-4.411-1.516,0.251-3.608h15.488l0.251,4.079-3.458.837V78.556l-2.908.784-2.356-2.092a17.164,17.164,0,0,1-4.235,1.517,21.619,21.619,0,0,1-4.888.575A18.433,18.433,0,0,1,391,77.9a13.481,13.481,0,0,1-5.113-3.922,16.049,16.049,0,0,1-2.857-5.857,27.918,27.918,0,0,1-.9-7.243,23.708,23.708,0,0,1,1.078-7.112,18.6,18.6,0,0,1,3.233-6.145,16.17,16.17,0,0,1,5.313-4.314,15.8,15.8,0,0,1,7.318-1.621,26.327,26.327,0,0,1,4.312.366,16.352,16.352,0,0,1,4.61,1.569l1.153-1.935h3.108l0.1,12.969-3.158.523h0ZM379.021,73.646h0.868l-11.356-30.2-1.377.3,11.865,29.894h0Zm33-8.3h-0.806V77.56l0.806-.283V65.342h0Zm-0.567-22.885h-0.807V54.109l0.807-.283V42.458h0ZM368.642,67.626H358.215l-1.954,6.328,4.01,0.941-0.2,3.87H346.537l-0.252-3.713L350.6,73.8l8.572-22.853q1.453-3.818,2.607-7.739l7.218-1.464,0.4,0.157L381.825,73.85l2.807,0.941-0.451,3.975H367.489L367.088,75l3.509-1.255-1.955-6.118h0Zm-7.318-9.988h0l-1.655,5.282h7.469l-1.654-5.438-1.955-6.328-0.2.052-2,6.432h0Z"/>
</svg>
