<svg xmlns="http://www.w3.org/2000/svg" width="203" height="25" viewBox="0 0 203 25">
  <metadata><?xpacket begin="﻿" id="W5M0MpCehiHzreSzNTczkc9d"?>
<x:xmpmeta xmlns:x="adobe:ns:meta/" x:xmptk="Adobe XMP Core 5.6-c138 79.159824, 2016/09/14-01:09:01        ">
   <rdf:RDF xmlns:rdf="http://www.w3.org/1999/02/22-rdf-syntax-ns#">
      <rdf:Description rdf:about=""/>
   </rdf:RDF>
</x:xmpmeta>
                                                                                                    
                                                                                                    
                                                                                                    
                                                                                                    
                                                                                                    
                                                                                                    
                                                                                                    
                                                                                                    
                                                                                                    
                                                                                                    
                                                                                                    
                                                                                                    
                                                                                                    
                                                                                                    
                                                                                                    
                                                                                                    
                                                                                                    
                                                                                                    
                                                                                                    
                                                                                                    
                           
<?xpacket end="w"?></metadata>
<defs>
    <style>
      .cls-1 {
        fill: #fff;
        fill-rule: evenodd;
      }
    </style>
  </defs>
  <path id="mobile-logo" class="cls-1" d="M145.029-54.2a16.634,16.634,0,0,1,.51-13.629c3.57-7.132,15.9-9.667,15.9-9.667s-3.57-4.516-7.607-5.587c4.252-7.448,16.637-33.252-2.047-36.153-4.764-.739-9.25-0.095-13.213,3.388,0,0,7.51-2.072,10.54,3.17C152.1-107.508,139-94.31,135.848-88.438l5.95-.317s-4.931,11.728-4.081,19.492,7.312,15.056,7.312,15.056h0v0Zm-94.878,0a16.635,16.635,0,0,0-.51-13.629C46.071-74.967,33.746-77.5,33.746-77.5s3.57-4.516,7.607-5.587C37.1-90.537,24.716-116.341,43.4-119.242c4.764-.739,9.25-0.095,13.213,3.388,0,0-7.51-2.072-10.541,3.17-2.992,5.176,10.111,18.374,13.26,24.247l-5.95-.317s4.931,11.728,4.081,19.492S50.151-54.2,50.151-54.2h0ZM39.4-74.252s6.2,4.412,8.58,9.673-1.7,12.388-1.7,12.388l10.03,0.17C45.277-44.883,42.843-38.935,39.432-33.973c0.648-10.558,1.821-27.089-.033-40.279h0Zm1.9,4.264s2.21,4.582,1.615,14.509S41.64-41.4,41.64-41.4a12.009,12.009,0,0,1,3.145-4.667,37.007,37.007,0,0,1,5.61-4.285l-6.588-.424S50.568-63.709,41.3-69.988h0Zm11.492-.7c-3.187-3.716-5.83-6.882-10.37-8.083l3.145-1.109s5.7,5.071,7.225,9.192h0Zm-4.654-19.85-2.014-.756-5.414-9.528,3.3,9.883-1.146,1.114,1.87,0.538,5.175,9.27-3.1-9.758,1.13-.838,0.2,0.074h0Zm11.474-39.347a31.087,31.087,0,0,1,11.05-5.7,48.738,48.738,0,0,1,11.56-2.078l-2.21-1s-14.281,1.77-20.4,8.775h0v0Zm-19.441,17.4a37.453,37.453,0,0,0,9.776,18.224l-3.06-.713s-7.2-8.478-6.715-17.511h0Zm45.907-22.958A83.741,83.741,0,0,0,70.79-134.08C66.521-133.2,59.9-130.643,58-125.5c-2.161-10.345,13.694-16.524,22.385-18l-1.228,2.534s4.967,2.288,6.922,5.52h0v0ZM50.6-122.757v0.005h0.024a24.3,24.3,0,0,0-5.971-.549,13.962,13.962,0,0,0-4.931,1.11s2.137-2.508,3.953-2.933a5.869,5.869,0,0,1,2.621.251,8.49,8.49,0,0,1-3.554-6.749c0.149,0.623,5.568,6.4,7.346,8.285L50.6-122.8h0v0.04Zm-4.863,5.636s-4.93,2.3-2.55,9.509,11.05,16.164,11.05,16.164l-5.143-.99c3.078,8.9,7.537,18.4,4.632,27.812-1.87-8.764-10.849-12.917-15.087-14.065A11.441,11.441,0,0,1,44.8-81.579s-8.58-14.623-8.07-25.478,9.01-10.064,9.01-10.064h0Zm7.161,4.333a23.52,23.52,0,0,1,3.315,6.5,78.2,78.2,0,0,1,2.125,8.319s-0.085-9.587-1.53-12.2a4.778,4.778,0,0,0-3.91-2.615h0v0Zm37.15-20.329s-14.79-.77-23.46,2.617S59.1-117.723,59.1-117.723a16.817,16.817,0,0,1-3.06-13.24c1.515-7.8,17.765-13.239,23.205-14.932s8.245-2.695,8.245-2.695l-5,6.955s6.869,3.437,7.549,8.517h0.009ZM55.953-134.5c-3.672,4.209-5,9.569-2.42,14.493a20.5,20.5,0,0,0-16.915.554c0.268-2.932,2.15-5.35,5.323-6.935l-1.157-7.332,7.311,2.377a10.844,10.844,0,0,1,7.858-3.157h0ZM60.2-91.949L48.3-108.9l5.1,1.1c0.663-2.379-2.761-5.969-4.675-5.864,0,0,6.284-2.058,9.259,1.825S60.2-91.949,60.2-91.949h0ZM97.615-155c3.218,4.067,6.789,8.191,10.8,12.388-3.543,3.692-7.138,7.789-10.8,12.387-3.217-4.067-6.789-8.19-10.8-12.387,3.544-3.694,7.139-7.788,10.8-12.388h0Zm0,21.041c-2.248-2.841-4.743-5.721-7.541-8.653,2.475-2.579,4.986-5.442,7.541-8.654v3.4l-5.865,5.549,5.865-3.552v0.738l-4.845,4.172,4.845-2.67v1.06L94.13-139.39l3.485-1.691v7.12h0v0Zm0-18.665c2.6,3.287,5.487,6.62,8.725,10.012-2.864,2.984-5.769,6.3-8.725,10.011-2.6-3.287-5.487-6.619-8.725-10.011,2.865-2.988,5.77-6.3,8.725-10.013h0Zm58.16,78.373s-6.2,4.412-8.58,9.673,1.7,12.388,1.7,12.388l-10.03.17c11.033,7.139,13.467,13.087,16.877,18.049-0.647-10.558-1.821-27.089.033-40.279h0Zm-1.9,4.264s-2.209,4.582-1.615,14.509,1.276,14.085,1.276,14.085a12.015,12.015,0,0,0-3.146-4.667,37.019,37.019,0,0,0-5.61-4.285l6.588-.424s-6.758-12.939,2.507-19.217h0Zm-11.491-.7c3.187-3.716,5.83-6.882,10.37-8.083l-3.145-1.109s-5.7,5.071-7.225,9.192h0Zm4.653-19.85,2.014-.756,5.414-9.528-3.3,9.883,1.146,1.114-1.87.538-5.175,9.27,3.1-9.758-1.13-.838-0.2.074h0Zm-11.469-39.348a31.088,31.088,0,0,0-11.05-5.7,48.751,48.751,0,0,0-11.561-2.078l2.21-1s14.281,1.77,20.4,8.775h0v0Zm19.441,17.4a37.46,37.46,0,0,1-9.776,18.224l3.061-.713s7.2-8.478,6.715-17.511h0ZM109.1-135.443a83.726,83.726,0,0,1,15.287,1.363c4.27,0.876,10.894,3.437,12.792,8.583,2.161-10.345-13.694-16.524-22.384-18l1.227,2.534s-4.967,2.288-6.922,5.52h0Zm35.483,12.686v0.005h0.011a24.254,24.254,0,0,1,5.971-.549,13.962,13.962,0,0,1,4.931,1.11s-2.137-2.508-3.953-2.933a5.869,5.869,0,0,0-2.621.251,8.493,8.493,0,0,0,3.554-6.749c-0.149.623-5.568,6.4-7.346,8.285l-0.51.54h0Zm4.863,5.636s4.929,2.3,2.549,9.509-11.05,16.164-11.05,16.164l5.143-.99c-3.078,8.9-7.537,18.4-4.633,27.812,1.87-8.764,10.85-12.917,15.088-14.065a11.441,11.441,0,0,0-6.158-2.889s8.58-14.623,8.07-25.478-9.009-10.064-9.009-10.064h0Zm-7.161,4.333a23.5,23.5,0,0,0-3.315,6.5,78.1,78.1,0,0,0-2.125,8.319s0.085-9.587,1.53-12.2a4.781,4.781,0,0,1,3.91-2.615h0v0Zm-37.149-20.33s14.79-.77,23.461,2.617,7.48,12.778,7.48,12.778a16.817,16.817,0,0,0,3.06-13.24c-1.515-7.8-17.765-13.239-23.2-14.932s-8.246-2.695-8.246-2.695l5,6.955s-6.868,3.437-7.549,8.517h-0.006Zm34.091-1.383c3.672,4.209,5,9.569,2.419,14.493a20.5,20.5,0,0,1,16.916.554c-0.268-2.932-2.15-5.35-5.323-6.935l1.161-7.332-7.31,2.377a10.845,10.845,0,0,0-7.859-3.162h0Zm-4.251,42.556,11.9-16.956-5.1,1.109c-0.663-2.379,2.761-5.969,4.675-5.864,0,0-6.284-2.058-9.259,1.825s-2.217,19.887-2.217,19.887h0Zm-2.77,69.331c-2.656-1.77-5.923-2.538-13.133-2.079S98.146-14.369,98.146-14.369s5.5-14.864,11.789-18.426,18.891-3.5,28.475-3.875,12.07-3.28,12.07-3.28-0.171,6.845-5.1,8.881-12.324.82-12.324,0.82,4.335,4.836-.85,7.636h0ZM77.006-38.3l-28.05-1.019,6.2-4.5L77.006-38.3h0Zm-21.822-7.02L97.8-34.459,140.17-45.15v-2.885L97.66-40.441l-42.467-7.47-0.01,2.591h0v0Zm42.557,6.356,0.021,3.288L138.84-46.423l-41.1,7.459h0v0ZM118.5-38.3l28.05-1.019-6.2-4.5L118.5-38.3h0Zm-21,6.2,5.2,3.33L97.5-19.7l-5.284-9.073L97.5-32.1h0Zm0.043,10.281L93.712-28.4l3.833-2.416v9h0ZM65.6-28.09a25.149,25.149,0,0,1,11.092-.891c6.673,0.806,10.031,3.436,10.031,3.436a20.3,20.3,0,0,0-9.9-5.26c-6.163-1.273-8.968-.934-8.968-0.934L65.6-28.09h0Zm63.928,0a25.156,25.156,0,0,0-11.093-.891c-6.672.806-10.03,3.436-10.03,3.436a20.3,20.3,0,0,1,9.9-5.26c6.162-1.273,8.967-.934,8.967-0.934l2.253,3.649h0Zm17.681-7.763a58.582,58.582,0,0,1-8.073,1.179c-10.672.8-23.8-1-30.731,6.16-2.178,2.25-5.185,8.315-5.185,8.315a44.424,44.424,0,0,1,12.665-6.151c7.183-2.079,14.007-.4,16.364,1.527,1.046-2.506-1.082-5.434-2.509-7.212,3.079-.038,16.165.773,17.469-3.818h0Zm-98.636,0a50.159,50.159,0,0,0,7.789,1.179c10.672,0.8,23.8-1,30.731,6.16,2.178,2.25,5.185,8.315,5.185,8.315a44.424,44.424,0,0,0-12.665-6.151c-7.182-2.079-14.007-.4-16.363,1.527-1.046-2.506,1.081-5.434,2.508-7.212-3.078-.038-15.881.773-17.185-3.818h0ZM63.294-22.618c2.655-1.77,5.923-2.538,13.133-2.079S97.354-14.373,97.354-14.373,91.854-29.236,85.565-32.8,65.823-36.586,56.24-36.957s-11.5-3-11.5-3-0.4,6.562,4.533,8.6,13.175,1.1,13.175,1.1-4.335,4.836.85,7.636h0ZM91.048-49a2.763,2.763,0,0,1-1.573,2.512,4.03,4.03,0,0,1-2,.441c-0.258,0-.473,0-0.641-0.007l-1.547-.033c-0.552,0-.981.014-1.281,0.04l-0.066-.066V-46.3l0.033-.077a2.208,2.208,0,0,0,.517-0.382,3.212,3.212,0,0,0,.07-0.858l0.02-1.448v-3.275a14.214,14.214,0,0,0-.084-2,0.285,0.285,0,0,0-.219-0.241c-0.066-.015-0.318-0.037-0.758-0.064l-0.064-.064v-0.44l0.064-.06q0.576,0.041,1.979.04,0.9,0,1.613-.033,0.569-.026.963-0.027a2.732,2.732,0,0,1,2.371.821,1.727,1.727,0,0,1,.3,1,1.932,1.932,0,0,1-.718,1.531,2.48,2.48,0,0,1-.711.432,7.293,7.293,0,0,1-.932.278Q91.051-51.048,91.05-49h0ZM88.79-53.094a1.29,1.29,0,0,0-1.128-1.434,1.288,1.288,0,0,0-.361.008,6.086,6.086,0,0,0-.835.05c-0.018.453-.026,0.873-0.026,1.255v1.782q0.149,0.013.6,0.013a1.541,1.541,0,0,0,1.54-.749,2.08,2.08,0,0,0,.214-0.925h0ZM89.068-48.8a1.759,1.759,0,0,0-1.544-1.951,1.76,1.76,0,0,0-.5.013q-0.259,0-.59.017v2.993c0,0.32.009,0.639,0.026,0.95a4.871,4.871,0,0,0,.745.044,1.75,1.75,0,0,0,1.4-.569,2.252,2.252,0,0,0,.459-1.5h0v0Zm11.315,0.553a14.494,14.494,0,0,0-.142,2.133l-0.066.066-4.706-.04q-1.176,0-1.661.04l-0.066-.066V-46.3l0.033-.077a2.208,2.208,0,0,0,.517-0.382,3.271,3.271,0,0,0,.07-0.858l0.02-1.448v-3.275a14.154,14.154,0,0,0-.084-2,0.284,0.284,0,0,0-.218-0.241c-0.066-.015-0.318-0.037-0.758-0.064l-0.064-.064v-0.44l0.064-.06q0.653,0.04,2.019.04,1.216,0,4.628-.04l0.071,0.053-0.084.717q-0.04.341-.059,0.582l-0.044.6-0.064.07H99.413l-0.066-.064a2.586,2.586,0,0,0-.1-1,1.444,1.444,0,0,0-.694-0.143c-0.417-.033-0.782-0.051-1.1-0.051q-0.563,0-1.14.044c-0.046.452-.071,1.081-0.071,1.881v1.336q0.51,0.034.828,0.034l0.848-.007a1.282,1.282,0,0,0,.674-0.1,2.072,2.072,0,0,0,.134-0.871l0.064-.066h0.4l0.064,0.066c-0.015.481-.024,0.924-0.024,1.323,0,0.437.009,0.911,0.024,1.429l-0.064.057H98.759l-0.066-.064a2.08,2.08,0,0,0-.1-0.882,0.988,0.988,0,0,0-.63-0.185c-0.263-.02-0.544-0.031-0.84-0.031-0.316,0-.61.011-0.882,0.031v1.971q0,0.847.033,1.641h0.879a10.062,10.062,0,0,0,2.317-.148,0.214,0.214,0,0,0,.1-0.072,1.179,1.179,0,0,0,.124-0.386l0.154-.8,0.064-.071h0.4l0.071,0.064h0Zm11.5,2.126-0.07.079c-0.643-.03-1.019-0.046-1.127-0.046-0.212,0-.405.005-0.577,0.014-0.253.012-.415,0.019-0.486,0.019a0.575,0.575,0,0,1-.362-0.116,7.575,7.575,0,0,1-.926-0.911l-3.015-3.368v1.533a14.681,14.681,0,0,0,.084,2,0.279,0.279,0,0,0,.221.238,6.864,6.864,0,0,0,.757.067l0.065,0.064v0.432l-0.06.066q-0.647-.039-1.993-0.04-1.392,0-1.993.04l-0.064-.059V-46.55l0.064-.064a6.959,6.959,0,0,0,.758-0.067,0.279,0.279,0,0,0,.219-0.238,14.214,14.214,0,0,0,.084-2v-3.418a14.215,14.215,0,0,0-.084-2,0.284,0.284,0,0,0-.219-0.241c-0.066-.015-0.318-0.037-0.758-0.064l-0.064-.064v-0.44l0.064-.06q0.621,0.04,1.993.04,1.405,0,1.993-.04l0.06,0.06V-54.7l-0.065.064c-0.441.027-.693,0.049-0.757,0.064a0.284,0.284,0,0,0-.221.241,14.523,14.523,0,0,0-.084,2v1.6q0.318-.33,1.385-1.415,0.563-.576.8-0.834,0.636-.7.848-0.981a1.39,1.39,0,0,0,.35-0.64,0.113,0.113,0,0,0-.058-0.11l-0.071-.06v-0.368l0.078-.064q0.712,0.04,1.332.04,0.428,0,1.27-.04l0.071,0.064V-54.7l-0.064.058a2.922,2.922,0,0,0-1.03.174,4.324,4.324,0,0,0-.854.622q-0.646.549-1.671,1.53c-0.254.249-.594,0.578-1.023,0.981l3.7,3.838a2.818,2.818,0,0,0,1.443.917l0.059,0.066v0.4h0ZM62.273-60.172L97.779-61.3l35.277,1.132,0.017,0.274L97.658-58.766,62.29-59.9l-0.017-.274h0v0.005ZM14.826,17.086H7.462L6.009,21.437l2.873,0.626L8.816,24.139H0.132L0,22.129l2.707-.758L8.683,5.947Q9.112,4.893,9.492,3.8T10.2,1.6l3.83-.758,0.231,0.1L22.35,21.4l1.882,0.627-0.2,2.109H13.967L13.8,22.13l2.509-.791-1.486-4.252h0ZM9.543,10.824L8.288,14.548h5.679l-1.255-3.823L11.193,6.244H11.061L9.542,10.824h0Zm25.886,8.141h0.132q0.231-.594.677-1.747t0.908-2.439q0.462-1.286.891-2.439T38.73,10.6L36.419,9.8V8.025l6.835-.165,0.2,1.681a8.6,8.6,0,0,0-1.816,2.142,28.9,28.9,0,0,0-1.453,2.735L35.86,24.042l-2.84.561q-0.363-.759-0.875-1.879t-1.106-2.439q-0.594-1.319-1.2-2.719t-1.2-2.719q-0.594-1.319-1.106-2.439T26.653,10.53L25.068,9.9V8.156L31.6,7.9a9.9,9.9,0,0,0,.33,1.829,16.069,16.069,0,0,0,.627,1.862l2.873,7.383h0v0ZM53.423,7.7a9.376,9.376,0,0,1,3.83.659,5.714,5.714,0,0,1,2.245,1.7,5.834,5.834,0,0,1,1.073,2.339,13.843,13.843,0,0,1,.314,2.555l-0.264.428-10.368.594a5.948,5.948,0,0,0,1.189,3.971,4.87,4.87,0,0,0,3.7,1.2,12.564,12.564,0,0,0,2.014-.214,13.4,13.4,0,0,0,2.41-.643l0.792,2.5a11.671,11.671,0,0,1-3.17,1.318,14.494,14.494,0,0,1-3.764.5,11.237,11.237,0,0,1-3.8-.561A6.168,6.168,0,0,1,47.1,22.41a6.342,6.342,0,0,1-1.4-2.6,12.9,12.9,0,0,1-.429-3.477,14.141,14.141,0,0,1,.346-3.1,7.367,7.367,0,0,1,1.255-2.785,6.5,6.5,0,0,1,2.493-1.994A9.439,9.439,0,0,1,53.425,7.7h0Zm2.113,5.834a7.885,7.885,0,0,0-.1-1.269,3.152,3.152,0,0,0-.363-1.071,2,2,0,0,0-.743-0.742,2.354,2.354,0,0,0-1.2-.28,2.507,2.507,0,0,0-1.37.346,2.607,2.607,0,0,0-.875.923,4.051,4.051,0,0,0-.462,1.285,7.8,7.8,0,0,0-.132,1.434l5.25-.626h0Zm14.132,2.439V15.275l4.788-4.943-1.882-.791,0.033-1.483q1.882-.066,3.863-0.132t3.863-.132V9.409a16.091,16.091,0,0,0-2.988,1.483,15.679,15.679,0,0,0-2.526,1.977l-1.552,1.483,8.155,8.339-0.33,1.318L77.328,25l-7.66-9.03h0v0ZM69.338,21.6l2.113,0.791-0.066,1.747H62.338L62.206,22.5l2.509-1.022V8.731q0-1.894-.016-3.329T64.682,3.5l-2.245-.659V1.1l6.438-.957,0.4,0.166L69.341,21.6h0ZM111.8,8.748l-1.387-3.428a7.16,7.16,0,0,0-2.047-.807,10.1,10.1,0,0,0-2.245-.247,6.173,6.173,0,0,0-2.906.642,5.27,5.27,0,0,0-1.981,1.8,8.342,8.342,0,0,0-1.122,2.719,15.07,15.07,0,0,0-.364,3.412,11.007,11.007,0,0,0,1.4,6.1q1.4,2.109,4.8,2.109c0.176,0,.4-0.006.677-0.016s0.578-.039.908-0.083,0.665-.1,1.007-0.165a7.81,7.81,0,0,0,1.007-.263V15.175l-2.939-.923,0.132-1.912h9.443l0.1,2.175-2.278.561v9.2l-1.552.428L111,23.452a14.559,14.559,0,0,1-2.906.89,15.1,15.1,0,0,1-3,.33,12.582,12.582,0,0,1-4.853-.841,8.495,8.495,0,0,1-3.3-2.373A9.636,9.636,0,0,1,95.06,17.8a17.421,17.421,0,0,1-.594-4.7,16.147,16.147,0,0,1,.627-4.466,11.187,11.187,0,0,1,1.964-3.889A10.173,10.173,0,0,1,100.441,2,10.548,10.548,0,0,1,105.327.941a17.163,17.163,0,0,1,2.724.231,10.557,10.557,0,0,1,3.021,1.022L111.8,0.941h1.717l0.066,7.548-1.783.264h0v0ZM125.9,21.6l2.113,0.791-0.066,1.747H118.9l-0.132-1.648,2.509-1.022V8.731q0-1.894-.016-3.329t-0.017-1.9L119,2.849V1.1l6.405-.957,0.4,0.166,0.1,21.289h0ZM147.394,16a10.537,10.537,0,0,1-.5,3.23,7.788,7.788,0,0,1-1.535,2.752,7.426,7.426,0,0,1-2.625,1.912A9.086,9.086,0,0,1,139,24.6a10.743,10.743,0,0,1-3.731-.577,6.466,6.466,0,0,1-2.543-1.648,6.734,6.734,0,0,1-1.469-2.6,11.655,11.655,0,0,1-.479-3.477,10.054,10.054,0,0,1,.529-3.263,7.646,7.646,0,0,1,4.275-4.63,9.275,9.275,0,0,1,3.781-.709,9.77,9.77,0,0,1,3.516.577,6.563,6.563,0,0,1,2.51,1.664,6.944,6.944,0,0,1,1.5,2.62,11.2,11.2,0,0,1,.5,3.444h0Zm-11.622-.23a19.33,19.33,0,0,0,.132,2.307,6.73,6.73,0,0,0,.5,1.911,3.306,3.306,0,0,0,1.007,1.319,2.724,2.724,0,0,0,1.7.494,2.87,2.87,0,0,0,1.667-.445,3.033,3.033,0,0,0,1.007-1.186,5.915,5.915,0,0,0,.512-1.7,13.129,13.129,0,0,0,.149-2.01,16.307,16.307,0,0,0-.149-2.208,7.411,7.411,0,0,0-.528-1.961,3.648,3.648,0,0,0-1.024-1.4,2.55,2.55,0,0,0-1.667-.527,2.726,2.726,0,0,0-1.7.494,3.377,3.377,0,0,0-1.007,1.269,5.663,5.663,0,0,0-.479,1.73,15.869,15.869,0,0,0-.115,1.912h0ZM151.125,3.577l-2.278-.659V1.171l6.438-.922,0.4,0.3V3.12q0,0.956-.017,2.043t-0.016,2.06v2.785l0.1,0.033L157.958,8a8.8,8.8,0,0,1,1.4-.281,10.488,10.488,0,0,1,1.172-.082,6.252,6.252,0,0,1,3.187.741,5.814,5.814,0,0,1,2.014,1.912,7.732,7.732,0,0,1,1.04,2.637,14.836,14.836,0,0,1,.3,2.95,14.562,14.562,0,0,1-.363,3.263,8.042,8.042,0,0,1-1.206,2.8,6.047,6.047,0,0,1-2.245,1.945,7.533,7.533,0,0,1-3.483.725,8.513,8.513,0,0,1-2.427-.379,9.589,9.589,0,0,1-2.559-1.237L153.369,24.7l-2.246-.56V3.574h0Zm11.028,12.689a11.81,11.81,0,0,0-.148-1.878,5.162,5.162,0,0,0-.529-1.632,3.1,3.1,0,0,0-1.023-1.137,2.9,2.9,0,0,0-1.635-.428,4.95,4.95,0,0,0-1.617.3,9.247,9.247,0,0,0-1.453.627v8.667a4.743,4.743,0,0,0,1.271.379,8.346,8.346,0,0,0,1.337.116,3.32,3.32,0,0,0,2.807-1.3,6.027,6.027,0,0,0,.99-3.708h0V16.265Zm16.806,5.8-2.212,2.109q-0.66.165-1.354,0.3a6.9,6.9,0,0,1-1.287.132,5.361,5.361,0,0,1-2.245-.412,4.161,4.161,0,0,1-1.453-1.072,3.906,3.906,0,0,1-.793-1.466,5.89,5.89,0,0,1-.231-1.632,6.469,6.469,0,0,1,.066-0.857,4.61,4.61,0,0,1,.248-0.988,4.036,4.036,0,0,1,.512-0.956A3.235,3.235,0,0,1,171.1,16.4a7.41,7.41,0,0,1,.76-0.4,7.714,7.714,0,0,1,1.386-.445q0.892-.213,2.279-0.411t3.433-.3V13.6a2.316,2.316,0,0,0-.594-1.863,3.48,3.48,0,0,0-2.113-.477,18.361,18.361,0,0,0-2.311.181,15.977,15.977,0,0,0-2.576.543l-0.726-2.537a16.878,16.878,0,0,1,3.285-1.269,13.873,13.873,0,0,1,3.748-.511,6.963,6.963,0,0,1,4.374,1.22q1.569,1.22,1.569,4.152v7.91l2.542,0.593v1.78a8.244,8.244,0,0,1-2.014.857,8.425,8.425,0,0,1-2.41.363,5.963,5.963,0,0,1-.875-0.066,1.915,1.915,0,0,1-.809-0.314,2.012,2.012,0,0,1-.627-0.741,3.827,3.827,0,0,1-.363-1.351h-0.1Zm-2.938-.66a4.309,4.309,0,0,0,1.419-.28,5.424,5.424,0,0,0,1.519-.84v-3.3a11.337,11.337,0,0,0-2.575.5,5.024,5.024,0,0,0-1.387.692,1.581,1.581,0,0,0-.578.741,2.353,2.353,0,0,0-.115.676,1.988,1.988,0,0,0,.413,1.318,1.6,1.6,0,0,0,1.3.494h0Zm19.447,0.2,2.114,0.791-0.067,1.747h-9.046L188.336,22.5l2.51-1.022V8.731q0-1.894-.017-3.329t-0.016-1.9l-2.245-.659V1.1l6.405-.957,0.4,0.166,0.1,21.289h0ZM291.6,17.09h-7.363l-1.453,4.351,2.872,0.626-0.066,2.076h-8.683l-0.132-2.01,2.707-.758L285.46,5.951q0.429-1.054.809-2.142t0.71-2.208l3.83-.758,0.231,0.1,8.09,20.466,1.882,0.627-0.2,2.109h-10.07l-0.165-2.01,2.509-.791L291.6,17.092h0v0Zm-5.283-6.262-1.255,3.724h5.679l-1.255-3.823L287.97,6.248h-0.132l-1.519,4.581h0ZM302.2,9.839l0.264-1.812q1.057,0.033,2.3.033h2.13q1.188,0,2.328-.033t2.426-.033a8.3,8.3,0,0,1,2.856.412,4.856,4.856,0,0,1,1.717,1,3.087,3.087,0,0,1,.826,1.252,3.816,3.816,0,0,1,.215,1.154,2.617,2.617,0,0,1-.215,1.054,3.645,3.645,0,0,1-.562.907,4.386,4.386,0,0,1-.776.725,4.03,4.03,0,0,1-.825.478v0.066a4.883,4.883,0,0,1,2.493,1.532,4.048,4.048,0,0,1,.941,2.719,4.233,4.233,0,0,1-.462,1.978,4.718,4.718,0,0,1-1.271,1.532,5.908,5.908,0,0,1-1.882.989,7.431,7.431,0,0,1-2.3.346q-1.19,0-2-.016t-1.354-.033q-0.544-.016-0.891-0.017h-0.677q-1.617,0-2.856.017t-2.459.049L302,22.4q0.563-.163,1.139-0.313t1.139-.313V10.4l-2.08-.561h0Zm7.693,4.515a4.9,4.9,0,0,0,1.585-.263,2.769,2.769,0,0,0,.908-0.528,1.437,1.437,0,0,0,.413-0.626,1.933,1.933,0,0,0,.1-0.527,1.453,1.453,0,0,0-.809-1.384,4.3,4.3,0,0,0-2.03-.429q-0.231,0-.628.017t-0.759.049V21.375a5.3,5.3,0,0,0,.842.148c0.319,0.033.577,0.049,0.776,0.049A4.23,4.23,0,0,0,313,20.847a2.242,2.242,0,0,0,.892-1.812,2.81,2.81,0,0,0-.182-1.006,2.046,2.046,0,0,0-.644-0.856,3.337,3.337,0,0,0-1.271-.594,9.046,9.046,0,0,0-2.031-.247l-0.2-1.648,0.33-.33h0ZM329.044,7.7a9.378,9.378,0,0,1,3.83.659,5.72,5.72,0,0,1,2.245,1.7,5.837,5.837,0,0,1,1.073,2.339,13.818,13.818,0,0,1,.314,2.555l-0.264.428-10.368.594a5.944,5.944,0,0,0,1.189,3.971,4.869,4.869,0,0,0,3.7,1.2,12.558,12.558,0,0,0,2.014-.214,13.4,13.4,0,0,0,2.41-.643l0.792,2.5A11.681,11.681,0,0,1,332.81,24.1a14.5,14.5,0,0,1-3.764.5,11.236,11.236,0,0,1-3.8-.561,6.158,6.158,0,0,1-2.526-1.631,6.33,6.33,0,0,1-1.4-2.6,12.868,12.868,0,0,1-.43-3.477,14.118,14.118,0,0,1,.347-3.1,7.351,7.351,0,0,1,1.255-2.785,6.5,6.5,0,0,1,2.492-1.994,9.442,9.442,0,0,1,4.062-.758h0Zm2.113,5.834a7.931,7.931,0,0,0-.1-1.269,3.133,3.133,0,0,0-.363-1.071,2,2,0,0,0-.743-0.742,2.353,2.353,0,0,0-1.2-.28,2.506,2.506,0,0,0-1.37.346,2.6,2.6,0,0,0-.875.923,4.036,4.036,0,0,0-.463,1.285,7.837,7.837,0,0,0-.132,1.434l5.25-.626h0Zm14.132,2.439V15.277l4.787-4.943-1.882-.791,0.033-1.483q1.883-.066,3.863-0.132t3.863-.132V9.411a15,15,0,0,0-2.971,1.5,19.976,19.976,0,0,0-2.543,1.96l-1.716,1.582,8.32,8.24-0.33,1.318L353.18,25l-7.891-9.03h0Zm-0.331,5.635,2.114,0.791L347,24.139h-9.047l-0.132-1.648,2.509-1.022v-7.4q0-1.1-.016-2T340.3,10.725l-2.245-.659V8.352l6.438-.988,0.4,0.2,0.066,14.04h0ZM369.623,3.446l0.2-2.01q0.825,0.033,2.014.049l2.41,0.033q1.223,0.018,2.3.017h1.734q2.277,0,4.292-.033t4.325-.1l0.363,0.2L387.327,7.9l-1.651.329-1.551-3.691h-1.4q-0.941,0-2-.016T378.7,4.5h-1.453l-0.033,16.842,3.335,0.758-0.1,2.043h-11l-0.165-1.879,2.938-.889V4.233l-2.608-.791h0ZM400.658,8h2.129q0.942,0,1.833-.017l1.816-.033q0.924-.017,2.113-0.049l0.066,1.878-2.443.528V21.6l2.179,0.791-0.1,1.747h-8.585l-0.1-1.813,2.146-.791V10.4h-3.83q-0.132,3.2-.446,5.8a19.013,19.013,0,0,1-1.023,4.466,6.985,6.985,0,0,1-1.9,2.884,4.447,4.447,0,0,1-3,1.021,4.669,4.669,0,0,1-1.106-.131,3.09,3.09,0,0,1-.974-0.412,2.39,2.39,0,0,1-.694-0.676,1.624,1.624,0,0,1-.264-0.923,2.7,2.7,0,0,1,1.651-2.241l2.806,1.747a5.673,5.673,0,0,0,1.041-1.384,9.359,9.359,0,0,0,.825-2.208,24.25,24.25,0,0,0,.561-3.3q0.215-1.945.281-4.647L392.867,9.7l0.165-1.845q1.254,0.066,2.1.082l1.618,0.033q0.775,0.017,1.668.017h2.245Zm27.173,8a10.537,10.537,0,0,1-.5,3.23,7.788,7.788,0,0,1-1.535,2.752,7.425,7.425,0,0,1-2.625,1.912,9.083,9.083,0,0,1-3.731.709,10.745,10.745,0,0,1-3.731-.577,6.467,6.467,0,0,1-2.543-1.648,6.734,6.734,0,0,1-1.469-2.6,11.655,11.655,0,0,1-.479-3.477,10.054,10.054,0,0,1,.529-3.263,7.646,7.646,0,0,1,4.275-4.63,9.277,9.277,0,0,1,3.781-.709,9.777,9.777,0,0,1,3.517.577,6.565,6.565,0,0,1,2.509,1.664,6.944,6.944,0,0,1,1.5,2.62,11.2,11.2,0,0,1,.5,3.444h0Zm-11.622-.23a19.33,19.33,0,0,0,.132,2.307,6.7,6.7,0,0,0,.5,1.911,3.294,3.294,0,0,0,1.006,1.319,2.726,2.726,0,0,0,1.7.494,2.87,2.87,0,0,0,1.667-.445,3.039,3.039,0,0,0,1.008-1.186,5.948,5.948,0,0,0,.511-1.7,13.129,13.129,0,0,0,.149-2.01,16.307,16.307,0,0,0-.149-2.208,7.411,7.411,0,0,0-.528-1.961,3.635,3.635,0,0,0-1.024-1.4,2.55,2.55,0,0,0-1.667-.527,2.726,2.726,0,0,0-1.7.494,3.391,3.391,0,0,0-1.007,1.269,5.632,5.632,0,0,0-.478,1.73,15.869,15.869,0,0,0-.116,1.912h0ZM438.6,11.876a5.377,5.377,0,0,0-1.6.263,9.8,9.8,0,0,0-1.6.66q-0.066.857-.1,1.548T435.261,15.8a18.484,18.484,0,0,0,.149,2.455,6.029,6.029,0,0,0,.545,1.9A2.8,2.8,0,0,0,438.7,21.8a2.425,2.425,0,0,0,1.618-.527,3.563,3.563,0,0,0,.974-1.319,6.57,6.57,0,0,0,.479-1.7,11.586,11.586,0,0,0,.132-1.664,7.636,7.636,0,0,0-.264-2.143,4.436,4.436,0,0,0-.71-1.466,2.689,2.689,0,0,0-1.04-.841,3.153,3.153,0,0,0-1.288-.263h0v0Zm-0.363-3.2a9.616,9.616,0,0,1,1.882-.2,6.074,6.074,0,0,1,4.9,2.044,8.6,8.6,0,0,1,1.733,5.734,10.121,10.121,0,0,1-.462,3.032,7.693,7.693,0,0,1-1.453,2.67,7.293,7.293,0,0,1-2.525,1.912,8.571,8.571,0,0,1-3.682.725q-4.126,0-6.158-2.423t-2.03-7.531a24.969,24.969,0,0,1,.528-5.487,13.5,13.5,0,0,1,1.469-3.906,7.493,7.493,0,0,1,2.179-2.422,6.232,6.232,0,0,1,2.692-1.039q1.023-.13,1.882-0.247a12.9,12.9,0,0,0,1.65-.329,8.979,8.979,0,0,0,1.6-.61A9.919,9.919,0,0,0,444.17-.521a4.012,4.012,0,0,1,1.255,1.2,2.412,2.412,0,0,1,.4,1.269A1.681,1.681,0,0,1,444.6,3.563a9.217,9.217,0,0,1-3.367.5c-0.441,0-.794-0.006-1.057-0.017s-0.483-.017-0.66-0.016-0.336-.006-0.479-0.017S438.74,4,438.561,4a2.119,2.119,0,0,0-1.486.511,3.342,3.342,0,0,0-.875,1.433,10.693,10.693,0,0,0-.462,2.159q-0.148,1.236-.215,2.686l2.708-2.109h0Zm20.339,13.381-2.212,2.109q-0.661.165-1.354,0.3a6.914,6.914,0,0,1-1.288.132,5.366,5.366,0,0,1-2.245-.412,4.174,4.174,0,0,1-1.453-1.072,3.888,3.888,0,0,1-.792-1.466A5.889,5.889,0,0,1,449,20.016a6.469,6.469,0,0,1,.066-0.857,4.671,4.671,0,0,1,.247-0.988,4.036,4.036,0,0,1,.512-0.956,3.237,3.237,0,0,1,.892-0.824,7.461,7.461,0,0,1,.759-0.4,7.724,7.724,0,0,1,1.387-.445q0.891-.213,2.278-0.411t3.434-.3V13.6a2.316,2.316,0,0,0-.594-1.863,3.483,3.483,0,0,0-2.114-.477,18.38,18.38,0,0,0-2.311.181,15.965,15.965,0,0,0-2.575.543L450.25,9.442a16.888,16.888,0,0,1,3.286-1.269,13.872,13.872,0,0,1,3.747-.511,6.965,6.965,0,0,1,4.375,1.22q1.569,1.22,1.568,4.152v7.91l2.543,0.593v1.78a8.259,8.259,0,0,1-2.014.857,8.437,8.437,0,0,1-2.411.363,5.976,5.976,0,0,1-.875-0.066,1.921,1.921,0,0,1-.809-0.314,2.012,2.012,0,0,1-.627-0.741,3.829,3.829,0,0,1-.363-1.351h-0.1V22.057Zm-2.939-.66a4.307,4.307,0,0,0,1.42-.28,5.436,5.436,0,0,0,1.519-.84v-3.3a11.321,11.321,0,0,0-2.575.5,5,5,0,0,0-1.387.692,1.573,1.573,0,0,0-.578.741,2.32,2.32,0,0,0-.116.676,1.988,1.988,0,0,0,.413,1.318,1.6,1.6,0,0,0,1.3.494h0ZM479.042,8h2.13q0.94,0,1.832-.017l1.816-.033q0.924-.017,2.113-0.049L487,9.769l-2.443.528V21.6l2.179,0.791-0.1,1.747h-8.584l-0.1-1.813,2.146-.791V10.4h-3.829q-0.132,3.2-.446,5.8a19.014,19.014,0,0,1-1.024,4.466,7.008,7.008,0,0,1-1.9,2.884,4.449,4.449,0,0,1-3,1.021,4.669,4.669,0,0,1-1.106-.131,3.1,3.1,0,0,1-.974-0.412,2.381,2.381,0,0,1-.693-0.676,1.625,1.625,0,0,1-.265-0.923,2.7,2.7,0,0,1,1.651-2.241l2.807,1.747a5.7,5.7,0,0,0,1.04-1.384,9.359,9.359,0,0,0,.825-2.208,24.253,24.253,0,0,0,.562-3.3q0.215-1.945.28-4.647L471.253,9.7l0.165-1.845q1.254,0.066,2.1.082l1.619,0.033q0.774,0.017,1.667.017h2.245ZM125.387-99.821l-2.356-5.6a9.341,9.341,0,0,0-2.983-1.151,15.523,15.523,0,0,0-3.032-.314,7.983,7.983,0,0,0-3.885.889,7.783,7.783,0,0,0-2.732,2.51,11.445,11.445,0,0,0-1.629,3.9,22.409,22.409,0,0,0-.526,5.046A22.691,22.691,0,0,0,108.82-89a10.127,10.127,0,0,0,1.629,3.634,5.91,5.91,0,0,0,2.607,1.988,9.662,9.662,0,0,0,3.508.6q0.7,0,2.056-.131a7.843,7.843,0,0,0,2.506-.654v-6.53l-4.411-1.516,0.251-3.608h15.488l0.251,4.079-3.458.837v13.857l-2.908.784-2.356-2.092a17.173,17.173,0,0,1-4.235,1.517,21.62,21.62,0,0,1-4.888.575,18.431,18.431,0,0,1-7.669-1.438,13.481,13.481,0,0,1-5.113-3.922,16.051,16.051,0,0,1-2.857-5.857,27.947,27.947,0,0,1-.9-7.243,23.731,23.731,0,0,1,1.079-7.112,18.612,18.612,0,0,1,3.233-6.144,16.155,16.155,0,0,1,5.313-4.314,15.787,15.787,0,0,1,7.318-1.621,26.279,26.279,0,0,1,4.311.366,16.367,16.367,0,0,1,4.612,1.569l1.152-1.935h3.108l0.1,12.968-3.158.523h0ZM95.21-81.356h0.868l-11.356-30.2-1.376.3,11.864,29.9h0Zm33-8.3H127.4v12.214l0.806-.283V-89.66h0v0Zm-0.568-22.884h-0.806v11.647l0.806-.283v-11.367h0v0ZM84.831-87.376H74.4l-1.95,6.328L76.46-80.1l-0.2,3.87H62.725l-0.251-3.713L66.785-81.2l8.572-22.852q1.454-3.819,2.607-7.739l7.218-1.464,0.4,0.157L98.014-81.152l2.807,0.941-0.451,3.975H83.678L83.277-80l3.509-1.255-1.955-6.118h0Zm-7.318-9.988h0l-1.655,5.282h7.469L81.673-97.52l-1.954-6.327-0.2.052-2,6.431H77.513ZM428.84-54.2a16.634,16.634,0,0,1,.51-13.629c3.57-7.132,15.895-9.667,15.895-9.667s-3.57-4.516-7.607-5.587c4.252-7.448,16.637-33.252-2.047-36.153-4.764-.739-9.25-0.095-13.213,3.388,0,0,7.51-2.072,10.54,3.17,2.993,5.176-10.11,18.374-13.259,24.247l5.95-.317s-4.931,11.728-4.081,19.492S428.84-54.2,428.84-54.2h0Zm-94.878,0a16.637,16.637,0,0,0-.51-13.629c-3.57-7.132-15.895-9.667-15.895-9.667s3.57-4.516,7.607-5.587c-4.252-7.448-16.637-33.252,2.047-36.153,4.764-.739,9.25-0.095,13.213,3.388,0,0-7.51-2.072-10.541,3.17-2.992,5.176,10.111,18.374,13.26,24.247l-5.95-.317s4.931,11.728,4.081,19.492S333.962-54.2,333.962-54.2h0ZM323.216-74.252s6.2,4.412,8.58,9.673-1.7,12.388-1.7,12.388l10.031,0.17c-11.033,7.139-13.467,13.087-16.878,18.049,0.648-10.558,1.822-27.089-.032-40.279h0Zm1.9,4.264s2.209,4.582,1.615,14.509S325.455-41.4,325.455-41.4a12.015,12.015,0,0,1,3.146-4.667,37.019,37.019,0,0,1,5.61-4.285l-6.588-.424s6.758-12.939-2.507-19.217h0Zm11.491-.7c-3.187-3.716-5.83-6.882-10.37-8.083l3.145-1.109s5.695,5.071,7.225,9.192h0Zm-4.654-19.85-2.013-.756-5.414-9.528,3.3,9.883-1.146,1.114,1.87,0.538,5.175,9.27-3.1-9.758,1.13-.838,0.2,0.074h0Zm11.472-39.348a31.072,31.072,0,0,1,11.05-5.7,48.734,48.734,0,0,1,11.56-2.078l-2.21-1s-14.28,1.77-20.4,8.775h0v0Zm-19.441,17.4a37.451,37.451,0,0,0,9.775,18.224l-3.06-.713s-7.2-8.478-6.715-17.511h0Zm45.907-22.958A83.77,83.77,0,0,0,354.6-134.08c-4.269.876-10.894,3.437-12.792,8.583-2.16-10.345,13.695-16.524,22.385-18l-1.228,2.534s4.968,2.288,6.923,5.52h0Zm-35.485,12.687v0.005H334.4a24.254,24.254,0,0,0-5.971-.549,13.957,13.957,0,0,0-4.931,1.11s2.137-2.508,3.953-2.933a5.869,5.869,0,0,1,2.621.251,8.493,8.493,0,0,1-3.554-6.749c0.149,0.623,5.568,6.4,7.345,8.285l0.511,0.54h0Zm-4.863,5.636s-4.929,2.3-2.549,9.509,11.05,16.164,11.05,16.164l-5.143-.99c3.078,8.9,7.537,18.4,4.632,27.812-1.869-8.764-10.849-12.917-15.087-14.065a11.441,11.441,0,0,1,6.158-2.889s-8.581-14.623-8.071-25.478,9.01-10.064,9.01-10.064h0Zm7.161,4.333a23.5,23.5,0,0,1,3.315,6.5,78.1,78.1,0,0,1,2.125,8.319s-0.085-9.587-1.53-12.2a4.781,4.781,0,0,0-3.91-2.615h0v0Zm37.15-20.329s-14.79-.77-23.46,2.617-7.48,12.778-7.48,12.778a16.817,16.817,0,0,1-3.06-13.24c1.515-7.8,17.765-13.239,23.205-14.932s8.241-2.695,8.241-2.695l-5,6.955s6.869,3.437,7.549,8.517h0Zm-34.09-1.384c-3.672,4.209-5,9.569-2.42,14.493a20.5,20.5,0,0,0-16.915.554c0.268-2.932,2.15-5.35,5.323-6.935l-1.158-7.328,7.311,2.377a10.845,10.845,0,0,1,7.859-3.162h0Zm4.25,42.556-11.9-16.956,5.1,1.109c0.663-2.379-2.762-5.969-4.675-5.864,0,0,6.284-2.058,9.259,1.825s2.216,19.887,2.216,19.887h0ZM381.426-155c3.218,4.067,6.789,8.191,10.8,12.388-3.543,3.692-7.138,7.789-10.8,12.387-3.217-4.067-6.788-8.19-10.794-12.387,3.543-3.694,7.138-7.788,10.794-12.388h0Zm0,21.041c-2.247-2.841-4.742-5.721-7.541-8.653,2.476-2.579,4.987-5.442,7.541-8.654v3.4l-5.865,5.554,5.865-3.552v0.733l-4.844,4.172,4.844-2.67v1.06l-3.484,3.179,3.484-1.691v7.12h0v0Zm0-18.665c2.6,3.287,5.487,6.62,8.725,10.012-2.864,2.984-5.769,6.3-8.725,10.011-2.6-3.287-5.486-6.619-8.724-10.011,2.864-2.984,5.769-6.3,8.724-10.012h0Zm58.16,78.373s-6.2,4.412-8.58,9.673,1.7,12.388,1.7,12.388l-10.03.17c11.033,7.139,13.467,13.087,16.877,18.049-0.647-10.558-1.821-27.089.033-40.279h0Zm-1.9,4.264s-2.209,4.582-1.615,14.509,1.276,14.085,1.276,14.085a12.015,12.015,0,0,0-3.146-4.667,37.019,37.019,0,0,0-5.61-4.285l6.588-.424s-6.758-12.939,2.507-19.217h0Zm-11.491-.7c3.187-3.716,5.83-6.882,10.37-8.083l-3.145-1.109s-5.7,5.071-7.225,9.192h0Zm4.653-19.85,2.014-.756,5.414-9.528-3.3,9.883,1.146,1.114-1.87.538-5.175,9.27,3.1-9.758-1.13-.838-0.2.074h0Zm-11.469-39.348a31.088,31.088,0,0,0-11.05-5.7,48.751,48.751,0,0,0-11.561-2.078l2.21-1s14.281,1.77,20.4,8.775h0v0Zm19.441,17.4a37.465,37.465,0,0,1-9.775,18.224l3.06-.713s7.2-8.478,6.715-17.511h0Zm-45.907-22.958A83.726,83.726,0,0,1,408.2-134.08c4.27,0.876,10.894,3.437,12.792,8.583,2.161-10.345-13.694-16.524-22.384-18l1.228,2.534s-4.968,2.288-6.923,5.52h0ZM428.4-122.757v0.005h0.006a24.254,24.254,0,0,1,5.971-.549,13.962,13.962,0,0,1,4.931,1.11s-2.137-2.508-3.953-2.933a5.869,5.869,0,0,0-2.621.251,8.493,8.493,0,0,0,3.554-6.749c-0.149.623-5.568,6.4-7.346,8.285l-0.51.54h0Zm4.863,5.636s4.929,2.3,2.549,9.509-11.05,16.164-11.05,16.164l5.143-.99c-3.078,8.9-7.537,18.4-4.632,27.812,1.869-8.764,10.849-12.917,15.087-14.065a11.441,11.441,0,0,0-6.158-2.889s8.58-14.623,8.07-25.478-9.009-10.064-9.009-10.064h0Zm-7.163,4.332a23.5,23.5,0,0,0-3.315,6.5,78.34,78.34,0,0,0-2.125,8.319s0.085-9.587,1.53-12.2a4.781,4.781,0,0,1,3.91-2.615h0v0Zm-37.153-20.329s14.791-.77,23.461,2.617,7.48,12.778,7.48,12.778a16.817,16.817,0,0,0,3.06-13.24c-1.515-7.8-17.765-13.239-23.2-14.932s-8.248-2.694-8.248-2.694l5,6.955s-6.868,3.437-7.549,8.517h0Zm34.091-1.383c3.672,4.209,5,9.569,2.419,14.493a20.5,20.5,0,0,1,16.916.554c-0.268-2.932-2.15-5.35-5.323-6.935l1.157-7.328-7.31,2.377a10.845,10.845,0,0,0-7.859-3.162h0Zm-4.25,42.556,11.9-16.956-5.1,1.109c-0.663-2.379,2.761-5.969,4.675-5.864,0,0-6.284-2.058-9.259,1.825s-2.216,19.887-2.216,19.887h0Zm-2.771,69.331c-2.656-1.77-5.923-2.538-13.133-2.079s-20.927,10.324-20.927,10.324,5.5-14.864,11.789-18.426,18.891-3.5,28.475-3.875,12.07-3.28,12.07-3.28-0.17,6.845-5.1,8.881-12.324.82-12.324,0.82,4.335,4.836-.85,7.636h0ZM360.817-38.3l-28.05-1.019,6.2-4.5L360.813-38.3h0ZM339-45.32l42.617,10.861,42.37-10.691v-2.885l-42.51,7.594-42.467-7.47L339-45.32h0Zm42.557,6.356,0.022,3.288,41.077-10.747-41.1,7.459h0ZM402.311-38.3l28.05-1.019-6.2-4.5L402.306-38.3h0Zm-21,6.2,5.2,3.33-5.2,9.073-5.285-9.073,5.285-3.33h0Zm0.043,10.281-3.834-6.583,3.834-2.416v9h0Zm-31.945-6.265a25.156,25.156,0,0,1,11.093-.891c6.672,0.806,10.03,3.436,10.03,3.436a20.3,20.3,0,0,0-9.9-5.26c-6.162-1.273-8.967-.934-8.967-0.934l-2.253,3.649h0Zm63.928,0a25.156,25.156,0,0,0-11.093-.891c-6.672.806-10.03,3.436-10.03,3.436a20.3,20.3,0,0,1,9.9-5.26c6.162-1.273,8.967-.934,8.967-0.934l2.253,3.649h0Zm17.681-7.763a58.582,58.582,0,0,1-8.073,1.179c-10.672.8-23.8-1-30.731,6.16-2.178,2.25-5.185,8.315-5.185,8.315A44.429,44.429,0,0,1,399.7-26.348c7.183-2.079,14.007-.4,16.364,1.527,1.046-2.506-1.082-5.434-2.509-7.212,3.079-.038,16.165.773,17.469-3.818h0Zm-98.636,0a50.179,50.179,0,0,0,7.789,1.179c10.672,0.8,23.8-1,30.732,6.16,2.178,2.25,5.185,8.315,5.185,8.315a44.424,44.424,0,0,0-12.666-6.151c-7.182-2.079-14.007-.4-16.363,1.527-1.046-2.506,1.081-5.434,2.508-7.212-3.078-.038-15.881.773-17.185-3.818h0Zm14.721,13.236c2.655-1.77,5.923-2.538,13.133-2.079S381.166-14.37,381.166-14.37s-5.5-14.864-11.79-18.426-19.742-3.787-29.325-4.158-11.5-3-11.5-3-0.4,6.562,4.533,8.6,13.175,1.1,13.175,1.1-4.335,4.836.85,7.636h0ZM374.859-49a2.763,2.763,0,0,1-1.573,2.512,4.026,4.026,0,0,1-2,.441c-0.259,0-.472,0-0.641-0.007L369.1-46.09c-0.552,0-.98.014-1.281,0.04l-0.066-.066V-46.3l0.033-.077a2.206,2.206,0,0,0,.517-0.382,3.171,3.171,0,0,0,.07-0.858l0.021-1.448v-3.275a14.215,14.215,0,0,0-.084-2,0.285,0.285,0,0,0-.219-0.241c-0.066-.015-0.318-0.037-0.758-0.064l-0.064-.064v-0.44l0.064-.06q0.576,0.04,1.98.04,0.894,0,1.612-.033,0.57-.026.963-0.027a2.734,2.734,0,0,1,2.371.821,1.722,1.722,0,0,1,.3,1,1.93,1.93,0,0,1-.718,1.531,2.47,2.47,0,0,1-.711.432,7.273,7.273,0,0,1-.933.278q2.668,0.116,2.667,2.165h0ZM372.6-53.094a1.291,1.291,0,0,0-1.128-1.434,1.288,1.288,0,0,0-.361.008,6.089,6.089,0,0,0-.835.05c-0.018.453-.026,0.873-0.026,1.255v1.782q0.149,0.013.6,0.013a1.542,1.542,0,0,0,1.54-.749,2.075,2.075,0,0,0,.214-0.925h0Zm0.278,4.292a1.759,1.759,0,0,0-1.544-1.951,1.758,1.758,0,0,0-.5.013c-0.172,0-.369.006-0.589,0.017v2.993c0,0.32.008,0.639,0.026,0.95a4.86,4.86,0,0,0,.744.044,1.749,1.749,0,0,0,1.4-.569,2.249,2.249,0,0,0,.459-1.5h0v0Zm11.315,0.553a14.358,14.358,0,0,0-.142,2.133l-0.066.066-4.706-.04q-1.176,0-1.661.04l-0.066-.066V-46.3l0.033-.077a2.206,2.206,0,0,0,.517-0.382,3.3,3.3,0,0,0,.07-0.858l0.021-1.448v-3.275a14.065,14.065,0,0,0-.085-2,0.284,0.284,0,0,0-.218-0.241c-0.066-.015-0.318-0.037-0.758-0.064l-0.064-.064v-0.44l0.064-.06q0.652,0.04,2.019.04,1.217,0,4.628-.04l0.071,0.053-0.084.717q-0.039.341-.059,0.582l-0.045.6-0.064.07h-0.375l-0.067-.064a2.6,2.6,0,0,0-.1-1,1.45,1.45,0,0,0-.694-0.143c-0.417-.033-0.782-0.051-1.1-0.051q-0.564,0-1.14.044c-0.046.452-.071,1.081-0.071,1.881v1.336c0.341,0.023.618,0.034,0.829,0.034l0.848-.007a1.281,1.281,0,0,0,.674-0.1,2.071,2.071,0,0,0,.135-0.871l0.064-.066H383l0.064,0.066c-0.016.481-.024,0.924-0.024,1.323,0,0.437.008,0.911,0.024,1.429L383-49.316h-0.43L382.5-49.38a2.1,2.1,0,0,0-.1-0.882,0.985,0.985,0,0,0-.629-0.185c-0.263-.02-0.544-0.031-0.84-0.031-0.316,0-.61.011-0.882,0.031v1.971q0,0.847.034,1.641h0.879a10.058,10.058,0,0,0,2.317-.148,0.208,0.208,0,0,0,.1-0.072,1.194,1.194,0,0,0,.124-0.386l0.154-.8,0.064-.071h0.4l0.071,0.064h0Zm11.5,2.126-0.07.079c-0.643-.03-1.019-0.046-1.127-0.046-0.212,0-.405.005-0.577,0.014-0.253.012-.415,0.019-0.486,0.019a0.575,0.575,0,0,1-.362-0.116,7.575,7.575,0,0,1-.926-0.911l-3.015-3.368v1.533a14.681,14.681,0,0,0,.084,2,0.279,0.279,0,0,0,.221.238,6.864,6.864,0,0,0,.757.067l0.065,0.064v0.432l-0.06.066q-0.646-.039-1.993-0.04-1.392,0-1.993.04l-0.064-.059V-46.55l0.064-.064a6.959,6.959,0,0,0,.758-0.067,0.279,0.279,0,0,0,.219-0.238,14.214,14.214,0,0,0,.084-2v-3.418a14.215,14.215,0,0,0-.084-2,0.284,0.284,0,0,0-.219-0.241c-0.066-.015-0.318-0.037-0.758-0.064l-0.064-.064v-0.44l0.064-.06q0.621,0.04,1.993.04,1.406,0,1.993-.04l0.06,0.06V-54.7l-0.065.064c-0.441.027-.693,0.049-0.757,0.064a0.284,0.284,0,0,0-.221.241,14.523,14.523,0,0,0-.084,2v1.6q0.318-.33,1.385-1.415,0.564-.576.8-0.834,0.637-.7.848-0.981a1.39,1.39,0,0,0,.35-0.64,0.113,0.113,0,0,0-.058-0.11l-0.071-.06v-0.368l0.078-.064q0.712,0.04,1.332.04,0.427,0,1.27-.04l0.071,0.064V-54.7l-0.064.058a2.922,2.922,0,0,0-1.03.174,4.324,4.324,0,0,0-.854.622q-0.646.549-1.671,1.53c-0.254.249-.594,0.578-1.023,0.981l3.7,3.838a2.818,2.818,0,0,0,1.443.917l0.059,0.066v0.4h0Zm-49.61-14.049L381.59-61.3l35.276,1.132,0.017,0.274-35.414,1.132L346.1-59.9l-0.017-.274h0v0.005ZM409.2-99.821l-2.356-5.6a9.341,9.341,0,0,0-2.983-1.151,15.515,15.515,0,0,0-3.032-.314,7.983,7.983,0,0,0-3.885.889,7.792,7.792,0,0,0-2.732,2.51,11.445,11.445,0,0,0-1.629,3.9,22.409,22.409,0,0,0-.526,5.046,22.69,22.69,0,0,0,.574,5.54,10.127,10.127,0,0,0,1.629,3.634,5.91,5.91,0,0,0,2.607,1.988,9.662,9.662,0,0,0,3.508.6q0.7,0,2.056-.131a7.843,7.843,0,0,0,2.506-.654v-6.53l-4.411-1.516,0.251-3.608h15.488l0.251,4.079-3.458.837v13.857l-2.908.784-2.356-2.092a17.173,17.173,0,0,1-4.235,1.517,21.62,21.62,0,0,1-4.888.575A18.436,18.436,0,0,1,391-77.1a13.481,13.481,0,0,1-5.113-3.922,16.049,16.049,0,0,1-2.857-5.857,27.913,27.913,0,0,1-.9-7.243,23.7,23.7,0,0,1,1.078-7.112,18.584,18.584,0,0,1,3.233-6.144,16.155,16.155,0,0,1,5.313-4.314,15.787,15.787,0,0,1,7.318-1.621,26.291,26.291,0,0,1,4.312.366,16.365,16.365,0,0,1,4.61,1.569l1.153-1.935h3.108l0.1,12.968-3.158.523h0ZM379.021-81.356h0.868l-11.356-30.2-1.377.3,11.865,29.893h0v0.006Zm33-8.3h-0.806v12.214l0.806-.283V-89.66h0v0Zm-0.567-22.884h-0.807v11.647l0.807-.283v-11.367h0v0ZM368.642-87.376H358.215l-1.954,6.328,4.01,0.941-0.2,3.87H346.537l-0.252-3.713L350.6-81.2l8.572-22.852q1.453-3.819,2.607-7.739L369-113.257l0.4,0.157,12.428,31.948,2.807,0.941-0.451,3.975H367.489L367.088-80l3.509-1.255-1.955-6.118h0Zm-7.318-9.988h0l-1.655,5.282h7.469l-1.654-5.438-1.955-6.327-0.2.052-2,6.431h0Z"/>
</svg>
