<svg xmlns="http://www.w3.org/2000/svg" width="71" height="39" viewBox="0 0 71 39">
  <metadata><?xpacket begin="﻿" id="W5M0MpCehiHzreSzNTczkc9d"?>
<x:xmpmeta xmlns:x="adobe:ns:meta/" x:xmptk="Adobe XMP Core 5.6-c138 79.159824, 2016/09/14-01:09:01        ">
   <rdf:RDF xmlns:rdf="http://www.w3.org/1999/02/22-rdf-syntax-ns#">
      <rdf:Description rdf:about=""/>
   </rdf:RDF>
</x:xmpmeta>
                                                                                                    
                                                                                                    
                                                                                                    
                                                                                                    
                                                                                                    
                                                                                                    
                                                                                                    
                                                                                                    
                                                                                                    
                                                                                                    
                                                                                                    
                                                                                                    
                                                                                                    
                                                                                                    
                                                                                                    
                                                                                                    
                                                                                                    
                                                                                                    
                                                                                                    
                                                                                                    
                           
<?xpacket end="w"?></metadata>
<defs>
    <style>
      .cls-1 {
        fill: #fff;
        fill-rule: evenodd;
      }
    </style>
  </defs>
  <path id="mobile-logo-2" class="cls-1" d="M83.029,59.8a16.633,16.633,0,0,1,.51-13.629c3.57-7.132,15.9-9.667,15.9-9.667s-3.57-4.516-7.607-5.587c4.252-7.448,16.637-33.252-2.047-36.153-4.764-.739-9.25-0.095-13.213,3.388,0,0,7.51-2.072,10.54,3.17C90.1,6.492,77,19.69,73.848,25.562l5.95-.317s-4.931,11.728-4.081,19.492,7.312,15.056,7.312,15.056h0v0Zm-94.878,0a16.635,16.635,0,0,0-.51-13.629c-3.57-7.136-15.9-9.671-15.9-9.671s3.57-4.516,7.607-5.587C-24.9,23.463-37.284-2.341-18.6-5.242c4.764-.739,9.25-0.1,13.213,3.388,0,0-7.51-2.072-10.541,3.17C-18.92,6.492-5.817,19.69-2.668,25.563l-5.95-.317s4.931,11.728,4.081,19.492S-11.849,59.8-11.849,59.8h0ZM-22.6,39.748s6.2,4.412,8.58,9.673-1.7,12.388-1.7,12.388l10.03,0.17c-11.033,7.139-13.467,13.087-16.878,18.049,0.648-10.558,1.821-27.089-.033-40.279h0Zm1.9,4.264s2.21,4.582,1.615,14.509S-20.36,72.6-20.36,72.6a12.009,12.009,0,0,1,3.145-4.667,37.007,37.007,0,0,1,5.61-4.285l-6.588-.424s6.761-12.939-2.507-19.217h0Zm11.492-.7c-3.187-3.716-5.83-6.882-10.37-8.083l3.145-1.109s5.7,5.071,7.225,9.192h0Zm-4.654-19.85-2.014-.756-5.414-9.528,3.3,9.883-1.146,1.114,1.87,0.538,5.175,9.27-3.1-9.758,1.13-.838,0.2,0.074h0ZM-2.388-15.885a31.072,31.072,0,0,1,11.05-5.7,48.712,48.712,0,0,1,11.56-2.078l-2.21-1s-14.281,1.771-20.4,8.776h0v0Zm-19.441,17.4a37.454,37.454,0,0,0,9.776,18.224l-3.06-.713s-7.2-8.479-6.715-17.511h0ZM24.078-21.443A83.67,83.67,0,0,0,8.79-20.08C4.521-19.2-2.1-16.643-4-11.5c-2.161-10.345,13.694-16.525,22.385-18l-1.228,2.534s4.967,2.288,6.922,5.521h0v0ZM-11.4-8.757v0h0.024A24.262,24.262,0,0,0-17.347-9.3a13.967,13.967,0,0,0-4.931,1.11s2.137-2.508,3.953-2.933a5.866,5.866,0,0,1,2.621.251,8.49,8.49,0,0,1-3.554-6.749c0.149,0.623,5.568,6.4,7.346,8.285L-11.4-8.8h0v0.04Zm-4.863,5.636s-4.93,2.3-2.55,9.509,11.05,16.165,11.05,16.165l-5.143-.99c3.078,8.9,7.537,18.4,4.632,27.812-1.87-8.764-10.849-12.917-15.087-14.065A11.441,11.441,0,0,1-17.2,32.421s-8.58-14.623-8.07-25.478,9.01-10.064,9.01-10.064h0ZM-9.1,1.212a23.52,23.52,0,0,1,3.315,6.5,78.236,78.236,0,0,1,2.125,8.32s-0.085-9.588-1.53-12.2A4.779,4.779,0,0,0-9.1,1.217h0V1.212Zm37.15-20.328s-14.79-.77-23.46,2.617S-2.9-3.723-2.9-3.723a16.816,16.816,0,0,1-3.06-13.24c1.515-7.8,17.765-13.24,23.205-14.933S25.49-34.59,25.49-34.59l-5,6.955s6.869,3.437,7.549,8.518h0.009ZM-6.047-20.5c-3.672,4.209-5,9.569-2.42,14.493a20.5,20.5,0,0,0-16.915.554c0.268-2.932,2.15-5.35,5.323-6.935l-1.157-7.332,7.311,2.377A10.844,10.844,0,0,1-6.047-20.5h0ZM-1.8,22.051L-13.7,5.1l5.1,1.1C-7.937,3.82-11.361.23-13.275,0.335c0,0,6.284-2.058,9.259,1.825S-1.8,22.051-1.8,22.051h0ZM35.615-41c3.218,4.067,6.789,8.191,10.795,12.388-3.543,3.692-7.138,7.79-10.795,12.388-3.217-4.067-6.789-8.191-10.8-12.388C28.364-32.306,31.959-36.4,35.615-41h0Zm0,21.041c-2.248-2.841-4.743-5.722-7.541-8.654,2.475-2.579,4.986-5.442,7.541-8.654v3.4L29.75-28.317l5.865-3.552v0.738L30.77-26.959l4.845-2.67v1.06L32.13-25.39l3.485-1.691v7.121h0v0Zm0-18.665c2.6,3.287,5.487,6.62,8.725,10.012-2.864,2.984-5.769,6.3-8.725,10.012-2.6-3.287-5.487-6.62-8.725-10.012,2.865-2.988,5.77-6.3,8.725-10.013h0Zm58.16,78.373s-6.2,4.412-8.58,9.673,1.7,12.388,1.7,12.388l-10.03.17C87.9,69.118,90.332,75.066,93.742,80.028c-0.647-10.558-1.821-27.089.033-40.279h0Zm-1.9,4.264s-2.209,4.582-1.615,14.509,1.276,14.085,1.276,14.085a12.014,12.014,0,0,0-3.146-4.667,37.019,37.019,0,0,0-5.61-4.285l6.588-.424S82.61,50.292,91.875,44.013h0Zm-11.491-.7c3.187-3.716,5.83-6.882,10.37-8.083l-3.145-1.109s-5.695,5.071-7.225,9.192h0Zm4.653-19.849,2.014-.756,5.414-9.528-3.3,9.883,1.146,1.114-1.87.538-5.175,9.27,3.1-9.758-1.13-.838-0.2.074h0ZM73.568-15.885a31.08,31.08,0,0,0-11.05-5.7,48.72,48.72,0,0,0-11.561-2.078l2.21-1s14.281,1.771,20.4,8.776h0v0Zm19.441,17.4a37.455,37.455,0,0,1-9.776,18.224l3.061-.713s7.2-8.479,6.715-17.511h0ZM47.1-21.443A83.668,83.668,0,0,1,62.387-20.08c4.27,0.876,10.894,3.437,12.792,8.583C77.34-21.842,61.485-28.021,52.8-29.5l1.227,2.534s-4.967,2.288-6.922,5.521h0ZM82.583-8.757v0h0.011A24.253,24.253,0,0,1,88.565-9.3,13.969,13.969,0,0,1,93.5-8.191s-2.137-2.508-3.953-2.933a5.866,5.866,0,0,0-2.621.251,8.49,8.49,0,0,0,3.554-6.749c-0.149.623-5.568,6.4-7.346,8.285l-0.51.54h0Zm4.863,5.636S92.375-.821,90,6.388s-11.05,16.165-11.05,16.165l5.143-.99c-3.078,8.9-7.537,18.4-4.633,27.812,1.87-8.764,10.85-12.917,15.088-14.065a11.442,11.442,0,0,0-6.158-2.889s8.58-14.623,8.07-25.478S87.446-3.121,87.446-3.121h0ZM80.285,1.212a23.506,23.506,0,0,0-3.315,6.5,78.236,78.236,0,0,0-2.125,8.32s0.085-9.588,1.53-12.2a4.78,4.78,0,0,1,3.91-2.615h0V1.212ZM43.136-19.118s14.79-.77,23.461,2.617,7.48,12.778,7.48,12.778a16.815,16.815,0,0,0,3.06-13.24c-1.515-7.8-17.765-13.24-23.2-14.933s-8.246-2.695-8.246-2.695l5,6.955s-6.868,3.437-7.549,8.518H43.136ZM77.227-20.5c3.672,4.209,5,9.569,2.419,14.493a20.5,20.5,0,0,1,16.916.554c-0.268-2.932-2.15-5.35-5.323-6.935L92.4-19.721l-7.31,2.377a10.845,10.845,0,0,0-7.859-3.162h0ZM72.976,22.055L84.876,5.1l-5.1,1.109C79.113,3.829,82.537.239,84.451,0.344c0,0-6.284-2.058-9.259,1.825s-2.217,19.887-2.217,19.887h0Zm-2.77,69.331c-2.656-1.77-5.923-2.538-13.133-2.079S36.146,99.631,36.146,99.631s5.5-14.864,11.789-18.427S66.826,77.7,76.41,77.33s12.07-3.28,12.07-3.28-0.171,6.845-5.1,8.881-12.324.82-12.324,0.82,4.335,4.836-.85,7.636h0ZM15.006,75.7l-28.05-1.019,6.2-4.5L15.006,75.7h0Zm-21.822-7.02L35.8,79.541,78.17,68.85V65.965L35.66,73.559l-42.467-7.47-0.01,2.591h0v0Zm42.557,6.356,0.021,3.288L76.84,67.577l-41.1,7.459h0v0ZM56.5,75.7l28.05-1.019-6.2-4.5L56.5,75.7h0Zm-21,6.2,5.2,3.33L35.5,94.3l-5.284-9.073L35.5,81.9h0Zm0.043,10.281L31.712,85.6l3.833-2.416v9h0ZM3.6,85.91a25.149,25.149,0,0,1,11.092-.891c6.673,0.806,10.031,3.436,10.031,3.436a20.3,20.3,0,0,0-9.9-5.26c-6.163-1.273-8.968-.934-8.968-0.934L3.6,85.91h0Zm63.928,0a25.156,25.156,0,0,0-11.093-.891c-6.672.806-10.03,3.436-10.03,3.436a20.294,20.294,0,0,1,9.9-5.26c6.162-1.273,8.967-.934,8.967-0.934l2.253,3.649h0Zm17.681-7.763a58.586,58.586,0,0,1-8.073,1.179c-10.672.8-23.8-1-30.731,6.16C44.227,87.735,41.22,93.8,41.22,93.8a44.425,44.425,0,0,1,12.665-6.151c7.183-2.079,14.007-.4,16.364,1.527,1.046-2.506-1.082-5.434-2.509-7.212,3.079-.038,16.165.773,17.469-3.818h0Zm-98.636,0a50.159,50.159,0,0,0,7.789,1.179c10.672,0.8,23.8-1,30.731,6.16,2.178,2.25,5.185,8.315,5.185,8.315a44.424,44.424,0,0,0-12.665-6.151c-7.182-2.079-14.007-.4-16.363,1.527C0.2,86.671,2.331,83.743,3.758,81.965c-3.078-.038-15.881.773-17.185-3.818h0ZM1.294,91.382c2.655-1.77,5.923-2.538,13.133-2.079S35.354,99.627,35.354,99.627,29.854,84.764,23.565,81.2,3.823,77.414-5.76,77.043s-11.5-3-11.5-3-0.4,6.562,4.533,8.6,13.175,1.1,13.175,1.1-4.335,4.836.85,7.636h0ZM29.048,65a2.763,2.763,0,0,1-1.573,2.512,4.03,4.03,0,0,1-2,.441c-0.258,0-.473,0-0.641-0.007l-1.547-.033c-0.552,0-.981.014-1.281,0.04l-0.066-.066V67.7l0.033-.077a2.208,2.208,0,0,0,.517-0.382,3.212,3.212,0,0,0,.07-0.858l0.02-1.448V61.663a14.214,14.214,0,0,0-.084-2,0.285,0.285,0,0,0-.219-0.241c-0.066-.015-0.318-0.037-0.758-0.064l-0.064-.064v-0.44l0.064-.06q0.576,0.041,1.979.04,0.9,0,1.613-.033,0.569-.026.963-0.027a2.732,2.732,0,0,1,2.371.821,1.727,1.727,0,0,1,.3,1,1.932,1.932,0,0,1-.718,1.531,2.48,2.48,0,0,1-.711.432,7.293,7.293,0,0,1-.932.278Q29.051,62.952,29.05,65h0ZM26.79,60.906A1.29,1.29,0,0,0,25.3,59.48a6.086,6.086,0,0,0-.835.05c-0.018.453-.026,0.873-0.026,1.255v1.782q0.149,0.013.6,0.013a1.541,1.541,0,0,0,1.54-.749,2.08,2.08,0,0,0,.214-0.925h0ZM27.068,65.2a1.759,1.759,0,0,0-2.039-1.938q-0.259,0-.59.017V66.27c0,0.32.009,0.639,0.026,0.95a4.871,4.871,0,0,0,.745.044,1.75,1.75,0,0,0,1.4-.569,2.252,2.252,0,0,0,.459-1.5h0v0Zm11.315,0.553a14.412,14.412,0,0,0-.142,2.133l-0.066.066-4.706-.04q-1.176,0-1.661.04l-0.066-.066V67.7l0.033-.077a2.208,2.208,0,0,0,.517-0.382,3.271,3.271,0,0,0,.07-0.858l0.02-1.448V61.663a14.154,14.154,0,0,0-.084-2,0.284,0.284,0,0,0-.218-0.241c-0.066-.015-0.318-0.037-0.758-0.064l-0.064-.064v-0.44l0.064-.06q0.653,0.04,2.019.04,1.216,0,4.628-.04l0.071,0.053-0.084.717q-0.04.341-.059,0.582l-0.044.6-0.064.07H37.413l-0.066-.064a2.586,2.586,0,0,0-.1-1,1.444,1.444,0,0,0-.694-0.143c-0.417-.033-0.782-0.051-1.1-0.051q-0.563,0-1.14.044c-0.046.452-.071,1.081-0.071,1.881v1.336q0.51,0.034.828,0.034l0.848-.007a1.282,1.282,0,0,0,.674-0.1,2.072,2.072,0,0,0,.134-0.871l0.064-.066h0.4l0.064,0.066c-0.015.481-.024,0.924-0.024,1.323,0,0.437.009,0.911,0.024,1.429l-0.064.057H36.759l-0.066-.064a2.08,2.08,0,0,0-.1-0.882,0.988,0.988,0,0,0-.63-0.185c-0.263-.02-0.544-0.031-0.84-0.031-0.316,0-.61.011-0.882,0.031v1.971q0,0.847.033,1.641h0.879a10.062,10.062,0,0,0,2.317-.148,0.214,0.214,0,0,0,.1-0.072,1.179,1.179,0,0,0,.124-0.386l0.154-.8,0.064-.071h0.4l0.071,0.064h0Zm11.5,2.126-0.07.079c-0.643-.03-1.019-0.046-1.127-0.046-0.212,0-.405.005-0.577,0.014-0.253.012-.415,0.019-0.486,0.019a0.575,0.575,0,0,1-.362-0.116,7.561,7.561,0,0,1-.926-0.911L43.32,63.548v1.533a14.665,14.665,0,0,0,.084,2,0.279,0.279,0,0,0,.221.238,6.853,6.853,0,0,0,.757.067l0.065,0.064v0.432l-0.06.066q-0.646-.039-1.993-0.04-1.392,0-1.993.04l-0.064-.059V67.45l0.064-.064a6.972,6.972,0,0,0,.758-0.067,0.279,0.279,0,0,0,.219-0.238,14.32,14.32,0,0,0,.084-2V61.663a14.291,14.291,0,0,0-.084-2,0.284,0.284,0,0,0-.219-0.241c-0.066-.015-0.318-0.037-0.758-0.064l-0.064-.064v-0.44l0.064-.06q0.621,0.04,1.993.04,1.406,0,1.993-.04l0.06,0.06V59.3l-0.065.064c-0.441.027-.693,0.049-0.757,0.064a0.284,0.284,0,0,0-.221.241,14.46,14.46,0,0,0-.084,2v1.6q0.318-.33,1.385-1.415,0.563-.576.8-0.834,0.636-.7.848-0.981a1.392,1.392,0,0,0,.35-0.64,0.113,0.113,0,0,0-.058-0.11l-0.071-.06V58.858l0.078-.064q0.712,0.04,1.332.04,0.427,0,1.27-.04l0.071,0.064V59.3l-0.064.058a2.923,2.923,0,0,0-1.03.174,4.33,4.33,0,0,0-.854.622q-0.647.549-1.671,1.53c-0.254.249-.594,0.578-1.023,0.981l3.7,3.838a2.819,2.819,0,0,0,1.443.917l0.059,0.066v0.4h0ZM0.273,53.828L35.779,52.7l35.277,1.132L71.073,54.1,35.658,55.234,0.29,54.1l-0.017-.274h0v0.005Zm-47.447,77.258h-7.364l-1.453,4.351,2.873,0.626-0.066,2.076h-8.684L-62,136.129l2.707-.758,5.976-15.424q0.429-1.055.809-2.142T-51.8,115.6l3.83-.758,0.231,0.1L-39.65,135.4l1.882,0.627-0.2,2.109H-48.033l-0.165-2.01,2.509-.791-1.486-4.252h0Zm-5.283-6.262-1.255,3.724h5.679l-1.255-3.823-1.519-4.481h-0.132l-1.519,4.58h0Zm25.886,8.141h0.132q0.231-.594.677-1.747t0.908-2.439q0.462-1.285.891-2.439t0.693-1.745l-2.311-.791v-1.778l6.835-.165,0.2,1.68a8.618,8.618,0,0,0-1.816,2.142,28.885,28.885,0,0,0-1.453,2.735l-4.325,9.624-2.84.561q-0.363-.759-0.875-1.879t-1.106-2.439q-0.594-1.319-1.2-2.719t-1.2-2.719q-0.594-1.319-1.106-2.439t-0.875-1.878l-1.585-.627v-1.748l6.532-.259a9.9,9.9,0,0,0,.33,1.828,16.034,16.034,0,0,0,.627,1.862l2.873,7.383h0v0ZM-8.577,121.7a9.375,9.375,0,0,1,3.83.658,5.72,5.72,0,0,1,2.245,1.7,5.845,5.845,0,0,1,1.073,2.339,13.85,13.85,0,0,1,.314,2.555l-0.264.428-10.368.594a5.947,5.947,0,0,0,1.189,3.971,4.869,4.869,0,0,0,3.7,1.2,12.5,12.5,0,0,0,2.014-.214,13.388,13.388,0,0,0,2.41-.643l0.792,2.5a11.687,11.687,0,0,1-3.17,1.318,14.5,14.5,0,0,1-3.764.5,11.242,11.242,0,0,1-3.8-.561A6.165,6.165,0,0,1-14.9,136.41a6.338,6.338,0,0,1-1.4-2.6,12.905,12.905,0,0,1-.429-3.477,14.146,14.146,0,0,1,.346-3.1,7.369,7.369,0,0,1,1.255-2.785,6.5,6.5,0,0,1,2.493-1.994,9.454,9.454,0,0,1,4.062-.758h0Zm2.113,5.833a7.888,7.888,0,0,0-.1-1.269,3.158,3.158,0,0,0-.363-1.071,2,2,0,0,0-.743-0.742,2.363,2.363,0,0,0-1.2-.28,2.513,2.513,0,0,0-1.37.346,2.611,2.611,0,0,0-.875.923,4.054,4.054,0,0,0-.462,1.285,7.8,7.8,0,0,0-.132,1.434l5.25-.626h0Zm14.132,2.439v-0.693l4.788-4.943-1.882-.791,0.033-1.482q1.882-.066,3.863-0.132t3.863-.132v1.614a16.154,16.154,0,0,0-2.988,1.483,15.718,15.718,0,0,0-2.526,1.977l-1.552,1.483,8.155,8.339-0.33,1.318L15.328,139l-7.66-9.03h0v0ZM7.338,135.6l2.113,0.791-0.066,1.747H0.338L0.206,136.5l2.509-1.022V122.731q0-1.893-.016-3.328t-0.017-1.9l-2.245-.659V115.1l6.438-.957,0.4,0.166L7.341,135.6h0ZM49.8,122.748l-1.387-3.427a7.13,7.13,0,0,0-2.047-.807,10.092,10.092,0,0,0-2.245-.247,6.161,6.161,0,0,0-2.906.642,5.262,5.262,0,0,0-1.981,1.8,8.323,8.323,0,0,0-1.122,2.718,15.075,15.075,0,0,0-.364,3.412,11.007,11.007,0,0,0,1.4,6.1q1.4,2.109,4.8,2.109c0.176,0,.4-0.006.677-0.016s0.578-.039.908-0.083,0.665-.1,1.007-0.165a7.77,7.77,0,0,0,1.007-.263v-5.346l-2.939-.923,0.132-1.912h9.443l0.1,2.175-2.278.561v9.2l-1.552.428L49,137.452a14.544,14.544,0,0,1-2.906.89,15.128,15.128,0,0,1-3,.33,12.59,12.59,0,0,1-4.853-.841,8.5,8.5,0,0,1-3.3-2.373A9.636,9.636,0,0,1,33.06,131.8a17.417,17.417,0,0,1-.594-4.7,16.151,16.151,0,0,1,.627-4.466,11.187,11.187,0,0,1,1.964-3.888A10.163,10.163,0,0,1,38.441,116a10.547,10.547,0,0,1,4.886-1.055,17.03,17.03,0,0,1,2.724.231,10.526,10.526,0,0,1,3.021,1.022l0.727-1.253h1.717l0.066,7.547-1.783.264h0v0ZM63.9,135.6l2.113,0.791-0.066,1.747H56.9l-0.132-1.648,2.509-1.022V122.731q0-1.893-.016-3.328t-0.017-1.9L57,116.849V115.1l6.405-.957,0.4,0.166,0.1,21.289H63.9ZM85.394,130a10.54,10.54,0,0,1-.5,3.23,7.779,7.779,0,0,1-1.535,2.752,7.43,7.43,0,0,1-2.625,1.912A9.1,9.1,0,0,1,77,138.6a10.754,10.754,0,0,1-3.731-.577,6.465,6.465,0,0,1-2.543-1.648,6.727,6.727,0,0,1-1.469-2.6,11.65,11.65,0,0,1-.479-3.477,10.052,10.052,0,0,1,.529-3.263,7.649,7.649,0,0,1,4.275-4.63,9.282,9.282,0,0,1,3.781-.708,9.77,9.77,0,0,1,3.516.576,6.576,6.576,0,0,1,2.51,1.664,6.944,6.944,0,0,1,1.5,2.62,11.182,11.182,0,0,1,.5,3.444h0Zm-11.622-.23a19.158,19.158,0,0,0,.132,2.307,6.744,6.744,0,0,0,.5,1.911,3.3,3.3,0,0,0,1.007,1.319,2.727,2.727,0,0,0,1.7.494,2.869,2.869,0,0,0,1.667-.445,3.032,3.032,0,0,0,1.007-1.186,5.9,5.9,0,0,0,.512-1.7,13.076,13.076,0,0,0,.149-2.01,16.315,16.315,0,0,0-.149-2.208,7.436,7.436,0,0,0-.528-1.961,3.651,3.651,0,0,0-1.024-1.4,2.555,2.555,0,0,0-1.667-.527,2.728,2.728,0,0,0-1.7.494,3.389,3.389,0,0,0-1.007,1.269,5.68,5.68,0,0,0-.479,1.73,15.918,15.918,0,0,0-.115,1.912h0Zm15.353-12.194-2.278-.659v-1.747l6.438-.922,0.4,0.3v2.571q0,0.956-.017,2.043t-0.016,2.06v2.784l0.1,0.033L95.958,122a8.674,8.674,0,0,1,1.4-.281,10.209,10.209,0,0,1,1.172-.082,6.25,6.25,0,0,1,3.187.74,5.826,5.826,0,0,1,2.014,1.912,7.742,7.742,0,0,1,1.04,2.637,14.838,14.838,0,0,1,.3,2.95,14.558,14.558,0,0,1-.363,3.263,8.041,8.041,0,0,1-1.206,2.8,6.044,6.044,0,0,1-2.245,1.945,7.534,7.534,0,0,1-3.483.725,8.5,8.5,0,0,1-2.427-.379,9.6,9.6,0,0,1-2.559-1.237L91.369,138.7l-2.246-.56V117.574h0Zm11.028,12.688a11.81,11.81,0,0,0-.148-1.878,5.159,5.159,0,0,0-.529-1.632,3.107,3.107,0,0,0-1.023-1.137,2.913,2.913,0,0,0-1.635-.428,4.985,4.985,0,0,0-1.617.3,9.248,9.248,0,0,0-1.453.627v8.667a4.745,4.745,0,0,0,1.271.379,8.32,8.32,0,0,0,1.337.116,3.32,3.32,0,0,0,2.807-1.3,6.025,6.025,0,0,0,.99-3.708h0v-0.006Zm16.806,5.8-2.212,2.109q-0.66.165-1.354,0.3a6.955,6.955,0,0,1-1.287.132,5.366,5.366,0,0,1-2.245-.412,4.169,4.169,0,0,1-1.453-1.072,3.906,3.906,0,0,1-.793-1.466,5.888,5.888,0,0,1-.231-1.632,6.468,6.468,0,0,1,.066-0.857,4.614,4.614,0,0,1,.248-0.988,4.038,4.038,0,0,1,.512-0.956,3.241,3.241,0,0,1,.891-0.824,7.431,7.431,0,0,1,.76-0.4,7.827,7.827,0,0,1,1.386-.445q0.892-.213,2.279-0.411t3.433-.3V127.6a2.316,2.316,0,0,0-.594-1.863,3.492,3.492,0,0,0-2.113-.477,18.436,18.436,0,0,0-2.311.181,16.053,16.053,0,0,0-2.576.543l-0.726-2.537a16.961,16.961,0,0,1,3.285-1.269,13.88,13.88,0,0,1,3.748-.51,6.961,6.961,0,0,1,4.374,1.219q1.569,1.221,1.569,4.152v7.91l2.542,0.593v1.78a8.248,8.248,0,0,1-2.014.857,8.442,8.442,0,0,1-2.41.363,5.963,5.963,0,0,1-.875-0.066,1.913,1.913,0,0,1-.809-0.314,2.014,2.014,0,0,1-.627-0.741,3.825,3.825,0,0,1-.363-1.351h-0.1Zm-2.938-.66a4.309,4.309,0,0,0,1.419-.28,5.429,5.429,0,0,0,1.519-.84v-3.3a11.4,11.4,0,0,0-2.575.5,5.046,5.046,0,0,0-1.387.692,1.583,1.583,0,0,0-.578.741,2.355,2.355,0,0,0-.115.676,1.988,1.988,0,0,0,.413,1.318,1.6,1.6,0,0,0,1.3.494h0Zm19.447,0.2,2.114,0.791-0.067,1.747h-9.046l-0.133-1.648,2.51-1.022V122.731q0-1.893-.017-3.328t-0.016-1.9l-2.245-.659V115.1l6.405-.957,0.4,0.166,0.1,21.289h0ZM229.6,131.09h-7.363l-1.453,4.351,2.872,0.626-0.066,2.076h-8.683l-0.132-2.01,2.707-.758,5.976-15.424q0.429-1.054.809-2.142t0.71-2.208l3.83-.758,0.231,0.1,8.09,20.466,1.882,0.627-0.2,2.109h-10.07l-0.165-2.01,2.509-.791-1.485-4.252h0v0Zm-5.283-6.262-1.255,3.724h5.679l-1.255-3.823-1.518-4.481h-0.132l-1.519,4.58h0Zm15.881-.989,0.264-1.811q1.058,0.033,2.3.033h2.13q1.188,0,2.328-.033t2.426-.033a8.288,8.288,0,0,1,2.856.411,4.865,4.865,0,0,1,1.717,1,3.1,3.1,0,0,1,.826,1.252,3.824,3.824,0,0,1,.215,1.154,2.612,2.612,0,0,1-.215,1.054,3.629,3.629,0,0,1-.562.907,4.372,4.372,0,0,1-.776.725,3.993,3.993,0,0,1-.825.478v0.066a4.888,4.888,0,0,1,2.493,1.532,4.049,4.049,0,0,1,.941,2.719,4.234,4.234,0,0,1-.462,1.978,4.715,4.715,0,0,1-1.271,1.532,5.9,5.9,0,0,1-1.882.989,7.446,7.446,0,0,1-2.3.346q-1.189,0-2-.016t-1.354-.033c-0.363-.011-0.66-0.016-0.891-0.017h-0.677q-1.617,0-2.856.017t-2.459.049L240,136.4q0.563-.164,1.139-0.313t1.139-.313V124.4l-2.08-.561h0Zm7.693,4.515a4.884,4.884,0,0,0,1.585-.263,2.743,2.743,0,0,0,.908-0.528,1.43,1.43,0,0,0,.413-0.626,1.927,1.927,0,0,0,.1-0.527,1.454,1.454,0,0,0-.809-1.384,4.314,4.314,0,0,0-2.03-.429q-0.231,0-.628.017t-0.759.049v10.712a5.227,5.227,0,0,0,.842.148c0.319,0.033.577,0.049,0.776,0.049a4.231,4.231,0,0,0,2.707-.725,2.242,2.242,0,0,0,.892-1.812,2.816,2.816,0,0,0-.182-1.006,2.049,2.049,0,0,0-.644-0.856,3.34,3.34,0,0,0-1.271-.594,9.028,9.028,0,0,0-2.031-.247l-0.2-1.648,0.33-.33h0Zm19.151-6.656a9.375,9.375,0,0,1,3.83.658,5.724,5.724,0,0,1,2.245,1.7,5.847,5.847,0,0,1,1.073,2.339,13.824,13.824,0,0,1,.314,2.555l-0.264.428-10.368.594a5.943,5.943,0,0,0,1.189,3.971,4.869,4.869,0,0,0,3.7,1.2,12.49,12.49,0,0,0,2.014-.214,13.388,13.388,0,0,0,2.41-.643l0.792,2.5a11.694,11.694,0,0,1-3.169,1.318,14.5,14.5,0,0,1-3.764.5,11.219,11.219,0,0,1-3.8-.561,6.159,6.159,0,0,1-2.526-1.631,6.328,6.328,0,0,1-1.4-2.6,12.87,12.87,0,0,1-.43-3.477,14.123,14.123,0,0,1,.347-3.1,7.357,7.357,0,0,1,1.255-2.785,6.507,6.507,0,0,1,2.492-1.994,9.454,9.454,0,0,1,4.062-.758h0Zm2.113,5.833a7.934,7.934,0,0,0-.1-1.269,3.139,3.139,0,0,0-.363-1.071,2,2,0,0,0-.743-0.742,2.365,2.365,0,0,0-1.2-.28,2.514,2.514,0,0,0-1.37.346,2.606,2.606,0,0,0-.875.923,4.042,4.042,0,0,0-.463,1.285,7.84,7.84,0,0,0-.132,1.434l5.25-.626h0Zm14.132,2.439v-0.693l4.787-4.943-1.882-.791,0.033-1.482q1.883-.066,3.863-0.132t3.863-.132v1.614a15.084,15.084,0,0,0-2.971,1.5,20.031,20.031,0,0,0-2.543,1.96l-1.716,1.582,8.32,8.24-0.33,1.318L291.18,139l-7.891-9.03h0Zm-0.331,5.635,2.114,0.791L285,138.139h-9.047l-0.132-1.648,2.509-1.022v-7.4q0-1.1-.016-2t-0.014-1.344l-2.245-.659v-1.714l6.438-.987,0.4,0.2,0.066,14.039h0Zm24.665-18.159,0.2-2.01q0.825,0.033,2.014.049l2.41,0.033q1.223,0.018,2.3.017h1.734q2.277,0,4.292-.033t4.325-.1l0.363,0.2,0.066,6.3-1.651.328-1.551-3.69h-1.4q-0.941,0-2-.017T316.7,118.5h-1.453l-0.033,16.841,3.335,0.758-0.1,2.043h-11l-0.165-1.879,2.938-.889V118.233l-2.608-.791h0ZM338.658,122h2.129q0.942,0,1.833-.017l1.816-.033q0.924-.018,2.113-0.049l0.066,1.877-2.443.528v11.3l2.179,0.791-0.1,1.747h-8.585l-0.1-1.813,2.146-.791V124.4h-3.83q-0.132,3.2-.446,5.8a19.009,19.009,0,0,1-1.023,4.466,6.984,6.984,0,0,1-1.9,2.884,4.447,4.447,0,0,1-3,1.021,4.627,4.627,0,0,1-1.106-.131,3.092,3.092,0,0,1-.974-0.412,2.378,2.378,0,0,1-.694-0.676,1.625,1.625,0,0,1-.264-0.923,2.7,2.7,0,0,1,1.651-2.241l2.806,1.747a5.675,5.675,0,0,0,1.041-1.384,9.356,9.356,0,0,0,.825-2.208,24.249,24.249,0,0,0,.561-3.3q0.215-1.944.281-4.647l-2.773-.693,0.165-1.844q1.254,0.066,2.1.082l1.618,0.033q0.775,0.017,1.668.017h2.245Zm27.173,8a10.537,10.537,0,0,1-.5,3.23,7.782,7.782,0,0,1-1.535,2.752,7.431,7.431,0,0,1-2.625,1.912,9.08,9.08,0,0,1-3.731.709,10.755,10.755,0,0,1-3.731-.577,6.465,6.465,0,0,1-2.543-1.648,6.735,6.735,0,0,1-1.469-2.6,11.653,11.653,0,0,1-.479-3.477,10.057,10.057,0,0,1,.529-3.263,7.649,7.649,0,0,1,4.275-4.63,9.282,9.282,0,0,1,3.781-.708,9.774,9.774,0,0,1,3.517.576,6.572,6.572,0,0,1,2.509,1.664,6.956,6.956,0,0,1,1.5,2.62,11.2,11.2,0,0,1,.5,3.444h0Zm-11.622-.23a19.324,19.324,0,0,0,.132,2.307,6.7,6.7,0,0,0,.5,1.911,3.292,3.292,0,0,0,1.006,1.319,2.727,2.727,0,0,0,1.7.494,2.87,2.87,0,0,0,1.667-.445,3.038,3.038,0,0,0,1.008-1.186,5.951,5.951,0,0,0,.511-1.7,13.127,13.127,0,0,0,.149-2.01,16.315,16.315,0,0,0-.149-2.208,7.425,7.425,0,0,0-.528-1.961,3.644,3.644,0,0,0-1.024-1.4,2.555,2.555,0,0,0-1.667-.527,2.727,2.727,0,0,0-1.7.494,3.4,3.4,0,0,0-1.007,1.269,5.639,5.639,0,0,0-.478,1.73,15.878,15.878,0,0,0-.116,1.912h0Zm22.386-3.889a5.4,5.4,0,0,0-1.6.263,9.921,9.921,0,0,0-1.6.66q-0.066.858-.1,1.548t-0.034,1.451a18.482,18.482,0,0,0,.149,2.455,6.03,6.03,0,0,0,.545,1.9,2.8,2.8,0,0,0,2.74,1.648,2.425,2.425,0,0,0,1.618-.527,3.559,3.559,0,0,0,.974-1.319,6.561,6.561,0,0,0,.479-1.7,11.592,11.592,0,0,0,.132-1.664,7.636,7.636,0,0,0-.264-2.143,4.442,4.442,0,0,0-.71-1.466,2.7,2.7,0,0,0-1.04-.841,3.169,3.169,0,0,0-1.288-.263h0v0Zm-0.363-3.2a9.677,9.677,0,0,1,1.882-.2,6.078,6.078,0,0,1,4.9,2.044,8.6,8.6,0,0,1,1.733,5.734,10.117,10.117,0,0,1-.462,3.032,7.689,7.689,0,0,1-1.453,2.67,7.293,7.293,0,0,1-2.525,1.912,8.571,8.571,0,0,1-3.682.725q-4.126,0-6.158-2.423t-2.03-7.531a24.97,24.97,0,0,1,.528-5.487,13.483,13.483,0,0,1,1.469-3.905,7.482,7.482,0,0,1,2.179-2.422,6.225,6.225,0,0,1,2.692-1.039q1.023-.131,1.882-0.247a13.052,13.052,0,0,0,1.65-.329,9.048,9.048,0,0,0,1.6-.61,9.948,9.948,0,0,0,1.733-1.121,4.005,4.005,0,0,1,1.255,1.2,2.412,2.412,0,0,1,.4,1.269,1.681,1.681,0,0,1-1.222,1.615,9.24,9.24,0,0,1-3.367.5c-0.441,0-.794-0.006-1.057-0.017s-0.483-.017-0.66-0.016-0.336-.006-0.479-0.017-0.3-.016-0.479-0.016a2.112,2.112,0,0,0-1.486.511,3.335,3.335,0,0,0-.875,1.433,10.676,10.676,0,0,0-.462,2.159q-0.148,1.235-.215,2.685l2.708-2.109h0Zm20.339,13.381-2.212,2.109q-0.661.165-1.354,0.3a6.965,6.965,0,0,1-1.288.132,5.366,5.366,0,0,1-2.245-.412,4.169,4.169,0,0,1-1.453-1.072,3.89,3.89,0,0,1-.792-1.466,5.888,5.888,0,0,1-.231-1.632,6.468,6.468,0,0,1,.066-0.857,4.672,4.672,0,0,1,.247-0.988,4.038,4.038,0,0,1,.512-0.956,3.245,3.245,0,0,1,.892-0.824,7.521,7.521,0,0,1,.759-0.4,7.837,7.837,0,0,1,1.387-.445q0.891-.213,2.278-0.411t3.434-.3V127.6a2.316,2.316,0,0,0-.594-1.863,3.5,3.5,0,0,0-2.114-.477,18.627,18.627,0,0,0-2.311.181,16.041,16.041,0,0,0-2.575.543l-0.727-2.537a16.945,16.945,0,0,1,3.286-1.269,13.878,13.878,0,0,1,3.747-.51,6.968,6.968,0,0,1,4.375,1.219q1.569,1.221,1.568,4.152v7.91l2.543,0.593v1.78a8.248,8.248,0,0,1-2.014.857,8.454,8.454,0,0,1-2.411.363,6.1,6.1,0,0,1-.875-0.066,1.926,1.926,0,0,1-.809-0.314,2.014,2.014,0,0,1-.627-0.741,3.825,3.825,0,0,1-.363-1.351h-0.1v-0.008Zm-2.939-.66a4.31,4.31,0,0,0,1.42-.28,5.429,5.429,0,0,0,1.519-.84v-3.3a11.348,11.348,0,0,0-2.575.5,5,5,0,0,0-1.387.692,1.572,1.572,0,0,0-.578.741,2.322,2.322,0,0,0-.116.676,1.988,1.988,0,0,0,.413,1.318,1.6,1.6,0,0,0,1.3.494h0Zm23.41-13.4h2.13q0.94,0,1.832-.017l1.816-.033q0.924-.018,2.113-0.049L425,123.769l-2.443.528v11.3l2.179,0.791-0.1,1.747h-8.584l-0.1-1.813,2.146-.791V124.4h-3.829q-0.132,3.2-.446,5.8a19.011,19.011,0,0,1-1.024,4.466,7,7,0,0,1-1.9,2.884,4.447,4.447,0,0,1-3,1.021,4.627,4.627,0,0,1-1.106-.131,3.092,3.092,0,0,1-.974-0.412,2.387,2.387,0,0,1-.693-0.676,1.626,1.626,0,0,1-.265-0.923,2.7,2.7,0,0,1,1.651-2.241l2.807,1.747a5.7,5.7,0,0,0,1.04-1.384,9.356,9.356,0,0,0,.825-2.208,24.225,24.225,0,0,0,.562-3.3q0.215-1.944.28-4.647l-2.773-.693,0.165-1.844q1.254,0.066,2.1.082l1.619,0.033q0.774,0.017,1.667.017h2.245ZM63.387,14.179l-2.356-5.6a9.352,9.352,0,0,0-2.983-1.151,15.551,15.551,0,0,0-3.032-.314A8,8,0,0,0,51.131,8a7.8,7.8,0,0,0-2.732,2.51,11.449,11.449,0,0,0-1.629,3.9,22.409,22.409,0,0,0-.526,5.046A22.711,22.711,0,0,0,46.82,25a10.12,10.12,0,0,0,1.629,3.634,5.91,5.91,0,0,0,2.607,1.988,9.661,9.661,0,0,0,3.508.6q0.7,0,2.056-.131a7.847,7.847,0,0,0,2.506-.654v-6.53l-4.411-1.516,0.251-3.608H70.454l0.251,4.079-3.458.837V37.554l-2.908.784-2.356-2.092a17.171,17.171,0,0,1-4.235,1.517,21.621,21.621,0,0,1-4.888.575A18.433,18.433,0,0,1,45.191,36.9a13.48,13.48,0,0,1-5.113-3.922,16.058,16.058,0,0,1-2.857-5.857,27.947,27.947,0,0,1-.9-7.243A23.726,23.726,0,0,1,37.4,12.767a18.61,18.61,0,0,1,3.233-6.145,16.159,16.159,0,0,1,5.313-4.314A15.8,15.8,0,0,1,53.264.687a26.3,26.3,0,0,1,4.311.366,16.362,16.362,0,0,1,4.612,1.569l1.152-1.935h3.108l0.1,12.969-3.158.523h0ZM33.21,32.644h0.868L22.722,2.449l-1.376.3,11.864,29.9h0Zm33-8.3H65.4V36.558l0.806-.283V24.34h0v0ZM65.642,1.46H64.836V13.108l0.806-.283V1.457h0v0ZM22.831,26.624H12.4l-1.95,6.328L14.46,33.9l-0.2,3.87H0.725L0.474,34.055,4.785,32.8,13.357,9.946q1.454-3.818,2.607-7.739l7.218-1.464,0.4,0.157L36.014,32.848l2.807,0.941L38.37,37.764H21.678L21.277,34l3.509-1.255-1.955-6.118h0Zm-7.318-9.988h0l-1.655,5.282h7.469L19.673,16.48l-1.954-6.328-0.2.052-2,6.432H15.513ZM366.84,59.8a16.634,16.634,0,0,1,.51-13.629c3.57-7.132,15.895-9.667,15.895-9.667s-3.57-4.516-7.607-5.587c4.252-7.448,16.637-33.252-2.047-36.153-4.764-.739-9.25-0.095-13.213,3.388,0,0,7.51-2.072,10.54,3.17,2.993,5.176-10.11,18.374-13.259,24.247l5.95-.317s-4.931,11.728-4.081,19.492S366.84,59.8,366.84,59.8h0Zm-94.878,0a16.637,16.637,0,0,0-.51-13.629c-3.57-7.132-15.9-9.667-15.9-9.667s3.57-4.516,7.607-5.587c-4.252-7.448-16.637-33.252,2.047-36.153,4.764-.739,9.25-0.095,13.213,3.388,0,0-7.51-2.072-10.541,3.17-2.992,5.176,10.111,18.374,13.26,24.247l-5.95-.317s4.931,11.728,4.081,19.492S271.962,59.8,271.962,59.8h0ZM261.216,39.748s6.2,4.412,8.58,9.673-1.7,12.388-1.7,12.388l10.031,0.17c-11.033,7.139-13.467,13.087-16.878,18.049,0.648-10.558,1.822-27.089-.032-40.279h0Zm1.9,4.264s2.209,4.582,1.615,14.509S263.455,72.6,263.455,72.6a12.015,12.015,0,0,1,3.146-4.667,37.019,37.019,0,0,1,5.61-4.285l-6.588-.424s6.758-12.939-2.507-19.217h0Zm11.491-.7c-3.187-3.716-5.83-6.882-10.37-8.083l3.145-1.109s5.695,5.071,7.225,9.192h0Zm-4.654-19.85-2.013-.756-5.414-9.528,3.3,9.883-1.146,1.114,1.87,0.538,5.175,9.27-3.1-9.758,1.13-.838,0.2,0.074h0Zm11.472-39.348a31.07,31.07,0,0,1,11.05-5.7,48.714,48.714,0,0,1,11.56-2.078l-2.21-1s-14.28,1.771-20.4,8.776h0v0Zm-19.441,17.4a37.453,37.453,0,0,0,9.775,18.224l-3.06-.713s-7.2-8.479-6.715-17.511h0Zm45.907-22.957A83.682,83.682,0,0,0,292.6-20.08c-4.269.876-10.894,3.437-12.792,8.583-2.16-10.345,13.695-16.525,22.385-18l-1.228,2.534s4.968,2.288,6.923,5.521h0ZM272.406-8.757v0H272.4a24.255,24.255,0,0,0-5.971-.549,13.964,13.964,0,0,0-4.931,1.11s2.137-2.508,3.953-2.933a5.868,5.868,0,0,1,2.621.251,8.492,8.492,0,0,1-3.554-6.749c0.149,0.623,5.568,6.4,7.345,8.285l0.511,0.54h0Zm-4.863,5.636s-4.929,2.3-2.549,9.509,11.05,16.165,11.05,16.165l-5.143-.99c3.078,8.9,7.537,18.4,4.632,27.812-1.869-8.764-10.849-12.917-15.087-14.065a11.441,11.441,0,0,1,6.158-2.889S258.023,17.8,258.533,6.943s9.01-10.064,9.01-10.064h0ZM274.7,1.212a23.5,23.5,0,0,1,3.315,6.5,78.14,78.14,0,0,1,2.125,8.32s-0.085-9.588-1.53-12.2a4.78,4.78,0,0,0-3.91-2.615h0V1.212Zm37.15-20.328s-14.79-.77-23.46,2.617-7.48,12.778-7.48,12.778a16.816,16.816,0,0,1-3.06-13.24c1.515-7.8,17.765-13.24,23.205-14.933s8.241-2.695,8.241-2.695l-5,6.955s6.869,3.437,7.549,8.518h0ZM277.764-20.5c-3.672,4.209-5,9.569-2.42,14.493a20.5,20.5,0,0,0-16.915.554c0.268-2.932,2.15-5.35,5.323-6.935l-1.158-7.328L269.9-17.34a10.843,10.843,0,0,1,7.859-3.162h0Zm4.25,42.556L270.114,5.1l5.1,1.109c0.663-2.379-2.762-5.969-4.675-5.864,0,0,6.284-2.058,9.259,1.825s2.216,19.887,2.216,19.887h0ZM319.426-41c3.218,4.067,6.789,8.191,10.8,12.388-3.543,3.692-7.138,7.79-10.8,12.388-3.217-4.067-6.788-8.191-10.794-12.388C312.175-32.306,315.77-36.4,319.426-41h0Zm0,21.041c-2.247-2.841-4.742-5.722-7.541-8.654,2.476-2.579,4.987-5.442,7.541-8.654v3.4l-5.865,5.554,5.865-3.552v0.733l-4.844,4.172,4.844-2.67v1.06l-3.484,3.179,3.484-1.691v7.121h0v0Zm0-18.665c2.6,3.287,5.487,6.62,8.725,10.012-2.864,2.984-5.769,6.3-8.725,10.012-2.6-3.287-5.486-6.62-8.724-10.012,2.864-2.984,5.769-6.3,8.724-10.012h0Zm58.16,78.373s-6.2,4.412-8.58,9.673,1.7,12.388,1.7,12.388l-10.03.17c11.033,7.139,13.467,13.087,16.877,18.049-0.647-10.558-1.821-27.089.033-40.279h0Zm-1.9,4.264s-2.209,4.582-1.615,14.509,1.276,14.085,1.276,14.085a12.015,12.015,0,0,0-3.146-4.667,37.019,37.019,0,0,0-5.61-4.285l6.588-.424s-6.758-12.939,2.507-19.217h0Zm-11.491-.7c3.187-3.716,5.83-6.882,10.37-8.083l-3.145-1.109s-5.7,5.071-7.225,9.192h0Zm4.653-19.849,2.014-.756,5.414-9.528-3.3,9.883,1.146,1.114-1.87.538-5.175,9.27,3.1-9.758-1.13-.838-0.2.074h0ZM357.379-15.885a31.079,31.079,0,0,0-11.05-5.7,48.726,48.726,0,0,0-11.561-2.078l2.21-1s14.281,1.771,20.4,8.776h0v0Zm19.441,17.4a37.462,37.462,0,0,1-9.775,18.224l3.06-.713s7.2-8.479,6.715-17.511h0ZM330.913-21.443A83.664,83.664,0,0,1,346.2-20.08c4.27,0.876,10.894,3.437,12.792,8.583,2.161-10.345-13.694-16.525-22.384-18l1.228,2.534s-4.968,2.288-6.923,5.521h0ZM366.4-8.757v0h0.006a24.255,24.255,0,0,1,5.971-.549,13.969,13.969,0,0,1,4.931,1.11s-2.137-2.508-3.953-2.933a5.866,5.866,0,0,0-2.621.251,8.492,8.492,0,0,0,3.554-6.749c-0.149.623-5.568,6.4-7.346,8.285l-0.51.54h0Zm4.863,5.636s4.929,2.3,2.549,9.509-11.05,16.165-11.05,16.165l5.143-.99c-3.078,8.9-7.537,18.4-4.632,27.812,1.869-8.764,10.849-12.917,15.087-14.065a11.441,11.441,0,0,0-6.158-2.889s8.58-14.623,8.07-25.478-9.009-10.064-9.009-10.064h0ZM364.1,1.211a23.5,23.5,0,0,0-3.315,6.5,78.381,78.381,0,0,0-2.125,8.32s0.085-9.588,1.53-12.2a4.78,4.78,0,0,1,3.91-2.615h0v0ZM326.947-19.118s14.791-.77,23.461,2.617,7.48,12.778,7.48,12.778a16.816,16.816,0,0,0,3.06-13.24c-1.515-7.8-17.765-13.24-23.2-14.933s-8.248-2.694-8.248-2.694l5,6.955s-6.868,3.437-7.549,8.518h0ZM361.038-20.5c3.672,4.209,5,9.569,2.419,14.493a20.5,20.5,0,0,1,16.916.554c-0.268-2.932-2.15-5.35-5.323-6.935l1.157-7.328L368.9-17.34a10.845,10.845,0,0,0-7.859-3.162h0Zm-4.25,42.556L368.688,5.1l-5.1,1.109c-0.663-2.379,2.761-5.969,4.675-5.864,0,0-6.284-2.058-9.259,1.825s-2.216,19.887-2.216,19.887h0Zm-2.771,69.331c-2.656-1.77-5.923-2.538-13.133-2.079s-20.927,10.324-20.927,10.324,5.5-14.864,11.789-18.427,18.891-3.5,28.475-3.875,12.07-3.28,12.07-3.28-0.17,6.845-5.1,8.881-12.324.82-12.324,0.82,4.335,4.836-.85,7.636h0ZM298.817,75.7l-28.05-1.019,6.2-4.5L298.813,75.7h0ZM277,68.68l42.617,10.861,42.37-10.691V65.965l-42.51,7.594-42.467-7.47L277,68.68h0Zm42.557,6.356,0.022,3.288,41.077-10.747-41.1,7.459h0ZM340.311,75.7l28.05-1.019-6.2-4.5L340.306,75.7h0Zm-21,6.2,5.2,3.33-5.2,9.073-5.285-9.073,5.285-3.33h0Zm0.043,10.281-3.834-6.583,3.834-2.416v9h0Zm-31.945-6.265a25.156,25.156,0,0,1,11.093-.891c6.672,0.806,10.03,3.436,10.03,3.436a20.3,20.3,0,0,0-9.9-5.26c-6.162-1.273-8.967-.934-8.967-0.934l-2.253,3.649h0Zm63.928,0a25.156,25.156,0,0,0-11.093-.891c-6.672.806-10.03,3.436-10.03,3.436a20.3,20.3,0,0,1,9.9-5.26c6.162-1.273,8.967-.934,8.967-0.934l2.253,3.649h0Zm17.681-7.763a58.582,58.582,0,0,1-8.073,1.179c-10.672.8-23.8-1-30.731,6.16-2.178,2.25-5.185,8.315-5.185,8.315A44.429,44.429,0,0,1,337.7,87.652c7.183-2.079,14.007-.4,16.364,1.527,1.046-2.506-1.082-5.434-2.509-7.212,3.079-.038,16.165.773,17.469-3.818h0Zm-98.636,0a50.179,50.179,0,0,0,7.789,1.179c10.672,0.8,23.8-1,30.732,6.16,2.178,2.25,5.185,8.315,5.185,8.315a44.424,44.424,0,0,0-12.666-6.151c-7.182-2.079-14.007-.4-16.363,1.527-1.046-2.506,1.081-5.434,2.508-7.212-3.078-.038-15.881.773-17.185-3.818h0Zm14.721,13.236c2.655-1.77,5.923-2.538,13.133-2.079S319.166,99.63,319.166,99.63s-5.5-14.864-11.79-18.427-19.742-3.787-29.325-4.158-11.5-3-11.5-3-0.4,6.562,4.533,8.6,13.175,1.1,13.175,1.1-4.335,4.836.85,7.636h0ZM312.859,65a2.763,2.763,0,0,1-1.573,2.512,4.026,4.026,0,0,1-2,.441c-0.259,0-.472,0-0.641-0.007L307.1,67.91c-0.552,0-.98.014-1.281,0.04l-0.066-.066V67.7l0.033-.077a2.206,2.206,0,0,0,.517-0.382,3.171,3.171,0,0,0,.07-0.858l0.021-1.448V61.663a14.215,14.215,0,0,0-.084-2,0.285,0.285,0,0,0-.219-0.241c-0.066-.015-0.318-0.037-0.758-0.064l-0.064-.064v-0.44l0.064-.06q0.576,0.04,1.98.04,0.894,0,1.612-.033,0.57-.026.963-0.027a2.734,2.734,0,0,1,2.371.821,1.722,1.722,0,0,1,.3,1,1.93,1.93,0,0,1-.718,1.531,2.47,2.47,0,0,1-.711.432,7.273,7.273,0,0,1-.933.278q2.668,0.116,2.667,2.165h0ZM310.6,60.906a1.29,1.29,0,0,0-1.489-1.426,6.089,6.089,0,0,0-.835.05c-0.018.453-.026,0.873-0.026,1.255v1.782q0.149,0.013.6,0.013a1.542,1.542,0,0,0,1.54-.749,2.075,2.075,0,0,0,.214-0.925h0Zm0.278,4.292a1.759,1.759,0,0,0-2.039-1.938c-0.172,0-.369.006-0.589,0.017V66.27c0,0.32.008,0.639,0.026,0.95a4.86,4.86,0,0,0,.744.044,1.749,1.749,0,0,0,1.4-.569,2.249,2.249,0,0,0,.459-1.5h0v0Zm11.315,0.553a14.358,14.358,0,0,0-.142,2.133l-0.066.066-4.706-.04q-1.176,0-1.661.04l-0.066-.066V67.7l0.033-.077a2.206,2.206,0,0,0,.517-0.382,3.3,3.3,0,0,0,.07-0.858l0.021-1.448V61.663a14.065,14.065,0,0,0-.085-2,0.284,0.284,0,0,0-.218-0.241c-0.066-.015-0.318-0.037-0.758-0.064l-0.064-.064v-0.44l0.064-.06q0.652,0.04,2.019.04,1.217,0,4.628-.04l0.071,0.053-0.084.717q-0.039.341-.059,0.582l-0.045.6-0.064.07h-0.375l-0.067-.064a2.6,2.6,0,0,0-.1-1,1.45,1.45,0,0,0-.694-0.143c-0.417-.033-0.782-0.051-1.1-0.051q-0.564,0-1.14.044c-0.046.452-.071,1.081-0.071,1.881v1.336c0.341,0.023.618,0.034,0.829,0.034l0.848-.007a1.281,1.281,0,0,0,.674-0.1,2.071,2.071,0,0,0,.135-0.871l0.064-.066H321l0.064,0.066c-0.016.481-.024,0.924-0.024,1.323,0,0.437.008,0.911,0.024,1.429L321,64.684h-0.43L320.5,64.62a2.1,2.1,0,0,0-.1-0.882,0.985,0.985,0,0,0-.629-0.185c-0.263-.02-0.544-0.031-0.84-0.031-0.316,0-.61.011-0.882,0.031v1.971q0,0.847.034,1.641h0.879a10.058,10.058,0,0,0,2.317-.148,0.208,0.208,0,0,0,.1-0.072,1.194,1.194,0,0,0,.124-0.386l0.154-.8,0.064-.071h0.4l0.071,0.064h0Zm11.5,2.126-0.07.079c-0.643-.03-1.019-0.046-1.127-0.046-0.212,0-.405.005-0.577,0.014-0.253.012-.415,0.019-0.486,0.019a0.575,0.575,0,0,1-.362-0.116,7.575,7.575,0,0,1-.926-0.911l-3.015-3.368v1.533a14.681,14.681,0,0,0,.084,2,0.279,0.279,0,0,0,.221.238,6.864,6.864,0,0,0,.757.067l0.065,0.064v0.432l-0.06.066q-0.646-.039-1.993-0.04-1.392,0-1.993.04l-0.064-.059V67.45l0.064-.064a6.959,6.959,0,0,0,.758-0.067,0.279,0.279,0,0,0,.219-0.238,14.214,14.214,0,0,0,.084-2V61.663a14.215,14.215,0,0,0-.084-2,0.284,0.284,0,0,0-.219-0.241c-0.066-.015-0.318-0.037-0.758-0.064l-0.064-.064v-0.44l0.064-.06q0.621,0.04,1.993.04,1.406,0,1.993-.04l0.06,0.06V59.3l-0.065.064c-0.441.027-.693,0.049-0.757,0.064a0.284,0.284,0,0,0-.221.241,14.523,14.523,0,0,0-.084,2v1.6q0.318-.33,1.385-1.415,0.564-.576.8-0.834,0.637-.7.848-0.981a1.39,1.39,0,0,0,.35-0.64,0.113,0.113,0,0,0-.058-0.11l-0.071-.06V58.858l0.078-.064q0.712,0.04,1.332.04,0.427,0,1.27-.04l0.071,0.064V59.3l-0.064.058a2.922,2.922,0,0,0-1.03.174,4.324,4.324,0,0,0-.854.622q-0.646.549-1.671,1.53c-0.254.249-.594,0.578-1.023,0.981l3.7,3.838a2.818,2.818,0,0,0,1.443.917l0.059,0.066v0.4h0Zm-49.61-14.049L319.59,52.7l35.276,1.132,0.017,0.274-35.414,1.132L284.1,54.1l-0.017-.274h0v0.005ZM347.2,14.179l-2.356-5.6a9.353,9.353,0,0,0-2.983-1.151,15.547,15.547,0,0,0-3.032-.314A8,8,0,0,0,334.944,8a7.806,7.806,0,0,0-2.732,2.51,11.449,11.449,0,0,0-1.629,3.9,22.409,22.409,0,0,0-.526,5.046,22.69,22.69,0,0,0,.574,5.54,10.127,10.127,0,0,0,1.629,3.634,5.91,5.91,0,0,0,2.607,1.988,9.662,9.662,0,0,0,3.508.6q0.7,0,2.056-.131a7.843,7.843,0,0,0,2.506-.654v-6.53l-4.411-1.516,0.251-3.608h15.488l0.251,4.079-3.458.837V37.554l-2.908.784-2.356-2.092a17.173,17.173,0,0,1-4.235,1.517,21.62,21.62,0,0,1-4.888.575A18.436,18.436,0,0,1,329,36.9a13.481,13.481,0,0,1-5.113-3.922,16.049,16.049,0,0,1-2.857-5.857,27.913,27.913,0,0,1-.9-7.243,23.69,23.69,0,0,1,1.078-7.112,18.589,18.589,0,0,1,3.233-6.145,16.165,16.165,0,0,1,5.313-4.314A15.8,15.8,0,0,1,337.072.685a26.335,26.335,0,0,1,4.312.366,16.359,16.359,0,0,1,4.61,1.569l1.153-1.935h3.108l0.1,12.969-3.158.523h0ZM317.021,32.644h0.868l-11.356-30.2-1.377.3,11.865,29.893h0v0.006Zm33-8.3h-0.806V36.558l0.806-.283V24.34h0v0ZM349.454,1.46h-0.807V13.108l0.807-.283V1.457h0v0ZM306.642,26.624H296.215l-1.954,6.328,4.01,0.941-0.2,3.87H284.537l-0.252-3.713L288.6,32.8l8.572-22.852q1.453-3.818,2.607-7.739L307,0.743,307.4,0.9l12.428,31.948,2.807,0.941-0.451,3.975H305.489L305.088,34l3.509-1.255-1.955-6.118h0Zm-7.318-9.988h0l-1.655,5.282h7.469l-1.654-5.438-1.955-6.328-0.2.052-2,6.432h0Z"/>
</svg>
